<svg width="40" height="40" viewBox="0 0 40 40" fill="none" xmlns="http://www.w3.org/2000/svg">
<circle cx="20" cy="20" r="20" fill="#002855"/>
<path d="M27.2 8H12.8C12.3226 8 11.8648 8.15804 11.5272 8.43934C11.1896 8.72064 11 9.10218 11 9.5V30.5C11 30.8978 11.1896 31.2794 11.5272 31.5607C11.8648 31.842 12.3226 32 12.8 32H17.606V27.995C17.606 27.4659 17.8582 26.9585 18.3072 26.5843C18.7561 26.2102 19.3651 26 20 26C20.6349 26 21.2439 26.2102 21.6928 26.5843C22.1418 26.9585 22.394 27.4659 22.394 27.995V32H27.2C27.6774 32 28.1352 31.842 28.4728 31.5607C28.8104 31.2794 29 30.8978 29 30.5V9.5C29 9.10218 28.8104 8.72064 28.4728 8.43934C28.1352 8.15804 27.6774 8 27.2 8V8ZM18.2 21.5H14.6V18.5H18.2V21.5ZM18.2 15.5H14.6V12.5H18.2V15.5ZM25.4 21.5H21.8V18.5H25.4V21.5ZM25.4 15.5H21.8V12.5H25.4V15.5Z" fill="white"/>
</svg>
