<svg width="10" height="10" viewBox="0 0 10 10" fill="none" xmlns="http://www.w3.org/2000/svg">
<path fill-rule="evenodd" clip-rule="evenodd" d="M7.8 0.29L9.67 2.17C9.77352 2.2699 9.85603 2.38947 9.9127 2.5217C9.96937 2.65393 9.99905 2.79614 10 2.94V8.57C10 8.94926 9.84934 9.31299 9.58116 9.58116C9.31299 9.84934 8.94926 10 8.57 10H1.43C1.05074 10 0.687014 9.84934 0.418837 9.58116C0.15066 9.31299 0 8.94926 0 8.57V1.43C0 1.05074 0.15066 0.687014 0.418837 0.418837C0.687014 0.15066 1.05074 0 1.43 0H7.06C7.33437 8.50353e-05 7.59862 0.103642 7.8 0.29ZM6.07 1.07H2.86V2.86H6.07V1.07ZM8.82456 8.82456C8.89207 8.75704 8.93 8.66548 8.93 8.57L8.89 3C8.8966 2.98416 8.9 2.96716 8.9 2.95C8.9 2.93284 8.8966 2.91584 8.89 2.9L7.14 1.16V3.39C7.14002 3.5315 7.08451 3.66736 6.98539 3.76835C6.88627 3.86933 6.75148 3.92738 6.61 3.93H2.32C2.17852 3.92738 2.04373 3.86933 1.94461 3.76835C1.84549 3.66736 1.78998 3.5315 1.79 3.39V1.07H1.43C1.33452 1.07 1.24295 1.10793 1.17544 1.17544C1.10793 1.24295 1.07 1.33452 1.07 1.43V8.57C1.07 8.66548 1.10793 8.75704 1.17544 8.82456C1.24295 8.89207 1.33452 8.93 1.43 8.93H8.57C8.66548 8.93 8.75704 8.89207 8.82456 8.82456ZM6.43007 6.43C6.43007 7.21977 5.78984 7.86 5.00007 7.86C4.2103 7.86 3.57007 7.21977 3.57007 6.43C3.57007 5.64023 4.2103 5 5.00007 5C5.78984 5 6.43007 5.64023 6.43007 6.43Z" fill="#ACACAC"/>
</svg>
