<svg width="10" height="8" viewBox="0 0 10 8" fill="none" xmlns="http://www.w3.org/2000/svg">
<path fill-rule="evenodd" clip-rule="evenodd" d="M5.43785 0.710092C6.12759 1.29203 6.49361 1.85871 6.49275 2.75533C6.49188 3.65589 6.12093 4.22486 5.42459 4.80518C4.58471 5.50513 3.43154 5.63626 2.38353 5.40579C1.78515 5.79028 1.09138 5.99838 0.381123 6.00644C0.304843 6.00455 0.230617 5.98122 0.166872 5.93909C0.103127 5.89696 0.0524171 5.83771 0.0204993 5.76809C-0.00353504 5.69389 -0.0064982 5.61444 0.0119428 5.53865C0.0303838 5.46286 0.0694981 5.39374 0.12489 5.33905C0.36315 5.0769 0.567244 4.78536 0.732257 4.47146C0.283217 4.01328 0.0281434 3.39827 0.0204993 2.75533C0.0906031 1.96071 0.385654 1.29203 1.07539 0.710092C1.75763 0.134481 2.35983 0 3.25662 0C4.15341 0 4.75561 0.134481 5.43785 0.710092ZM2.02291 4.76701L2.27914 4.624C3.19917 4.79731 4.10608 4.89818 4.89117 4.26133C5.41389 3.8373 5.71607 3.42392 5.71456 2.75533C5.71305 2.08828 5.41069 1.67728 4.88819 1.25542C4.37126 0.83807 3.92393 0.75704 3.25662 0.753188C2.58377 0.749304 2.13053 0.826835 1.60688 1.24471C1.07756 1.66711 0.763851 2.08273 0.770217 2.75533C0.776785 3.44929 1.19115 3.88162 1.64331 4.34752L1.39656 4.82422L1.20676 5.14837C1.49544 5.06078 1.77024 4.93238 2.02291 4.76701ZM9.97572 4.76694C9.96781 5.48782 9.70993 6.01717 9.26397 6.47353C9.43782 6.78904 9.65154 7.08065 9.8998 7.34113C9.95268 7.39772 9.9866 7.46952 9.99682 7.54646C10.007 7.6234 9.99302 7.70162 9.95674 7.77016C9.93357 7.84125 9.88729 7.90246 9.82533 7.94395C9.76337 7.98545 9.68933 8.00483 9.6151 7.99897C8.90577 7.99377 8.21207 7.78899 7.61269 7.40786C7.32597 7.4714 7.03321 7.50337 6.7396 7.5032C6.16078 7.52326 5.58676 7.39135 5.07418 7.12049C4.56159 6.84964 4.12816 6.4492 3.81665 5.95869C4.08432 5.93954 4.34875 5.88833 4.60433 5.80615C4.86531 6.11693 5.19307 6.3642 5.56292 6.52934C5.93277 6.69448 6.33509 6.77319 6.7396 6.75955C6.96684 6.75862 7.19311 6.7298 7.4134 6.67374L7.71708 6.62607L7.97331 6.76908C8.22269 6.94034 8.49842 7.06918 8.78946 7.15044C8.74279 7.08346 8.69612 7.00237 8.65274 6.92699C8.63437 6.89507 8.6166 6.86418 8.59966 6.83582L8.36241 6.35912C8.38161 6.33831 8.40078 6.31759 8.41989 6.29694C8.83668 5.84652 9.22483 5.42705 9.2355 4.76694C9.2457 4.13531 8.97543 3.74395 8.49992 3.32215C8.0294 2.90478 7.54365 2.74757 6.98634 2.75526C6.98933 2.50101 6.9574 2.24755 6.89144 2.00207C7.66105 1.97511 8.41133 2.24756 8.98592 2.76264C9.56051 3.27772 9.98528 3.8959 9.97572 4.76694Z" fill="#ACACAC"/>
</svg>
