<svg width="16" height="16" viewBox="0 0 16 16" fill="none" xmlns="http://www.w3.org/2000/svg">
<path d="M10.053 5.4542C10.1024 5.4101 10.1416 5.35764 10.1683 5.29984C10.1951 5.24203 10.2089 5.18004 10.2089 5.11742C10.2089 5.0548 10.1951 4.9928 10.1683 4.935C10.1416 4.8772 10.1024 4.82473 10.053 4.78064C10.0057 4.73526 9.94861 4.6991 9.88518 4.67437C9.82175 4.64965 9.75337 4.63689 9.68426 4.63689C9.61514 4.63689 9.54676 4.64965 9.48334 4.67437C9.41991 4.6991 9.36278 4.73526 9.31549 4.78064L3.72071 9.80863C3.3253 10.1646 3.10316 10.6475 3.10316 11.151C3.10316 11.6545 3.3253 12.1374 3.72071 12.4934C4.11612 12.8494 4.65241 13.0494 5.2116 13.0494C5.77079 13.0494 6.30708 12.8494 6.70248 12.4934L14.1516 5.78623C14.71 5.24672 15.014 4.53314 14.9995 3.79582C14.9851 3.05851 14.6533 2.35503 14.0742 1.83358C13.4951 1.31214 12.7138 1.01345 11.8949 1.00044C11.076 0.987434 10.2835 1.26112 9.68426 1.76384L2.23509 8.51842C1.44428 9.23047 1 10.1962 1 11.2032C1 12.2102 1.44428 13.1759 2.23509 13.8879C3.02591 14.6 4.09848 15 5.21687 15C6.33525 15 7.40782 14.6 8.19864 13.8879L13.7829 8.85046C13.8323 8.80637 13.8714 8.7539 13.8982 8.6961C13.9249 8.6383 13.9387 8.5763 13.9387 8.51368C13.9387 8.45106 13.9249 8.38906 13.8982 8.33126C13.8714 8.27346 13.8323 8.221 13.7829 8.1769C13.6826 8.08939 13.5485 8.04045 13.4088 8.04045C13.2692 8.04045 13.1351 8.08939 13.0348 8.1769L7.45056 13.1669C6.85136 13.6697 6.05884 13.9434 5.23995 13.9303C4.42106 13.9173 3.63975 13.6186 3.06062 13.0972C2.48149 12.5758 2.14976 11.8723 2.13531 11.135C2.12086 10.3976 2.42483 9.68406 2.98317 9.14455L10.485 2.42792C10.8804 2.0719 11.4167 1.87189 11.9759 1.87189C12.2528 1.87189 12.527 1.92099 12.7828 2.01639C13.0386 2.1118 13.271 2.25163 13.4668 2.42792C13.6626 2.6042 13.8179 2.81348 13.9238 3.04381C14.0298 3.27413 14.0843 3.52099 14.0843 3.7703C14.0843 4.0196 14.0298 4.26646 13.9238 4.49679C13.8179 4.72711 13.6626 4.93639 13.4668 5.11267L5.96494 11.8198C5.86699 11.9087 5.75046 11.9793 5.62207 12.0275C5.49367 12.0756 5.35596 12.1004 5.21687 12.1004C5.07777 12.1004 4.94006 12.0756 4.81166 12.0275C4.68327 11.9793 4.56674 11.9087 4.46879 11.8198C4.27255 11.6421 4.1624 11.4016 4.1624 11.151C4.1624 10.9004 4.27255 10.6599 4.46879 10.4822L10.053 5.4542Z" fill="black"/>
</svg>
