<svg width="20" height="20" viewBox="0 0 20 20" fill="none" xmlns="http://www.w3.org/2000/svg">
<path fill-rule="evenodd" clip-rule="evenodd" d="M6.11111 5H13.8889C14.1836 5 14.4662 4.89464 14.6746 4.70711C14.8829 4.51957 15 4.26522 15 4C15 3.73478 14.8829 3.48043 14.6746 3.29289C14.4662 3.10536 14.1836 3 13.8889 3H6.11111C5.81643 3 5.53381 3.10536 5.32544 3.29289C5.11706 3.48043 5 3.73478 5 4C5 4.26522 5.11706 4.51957 5.32544 4.70711C5.53381 4.89464 5.81643 5 6.11111 5ZM3 9H17C17.2652 9 17.5196 8.89464 17.7071 8.70711C17.8946 8.51957 18 8.26522 18 8C18 7.73478 17.8946 7.48043 17.7071 7.29289C17.5196 7.10536 17.2652 7 17 7H3C2.73478 7 2.48043 7.10536 2.29289 7.29289C2.10536 7.48043 2 7.73478 2 8C2 8.26522 2.10536 8.51957 2.29289 8.70711C2.48043 8.89464 2.73478 9 3 9ZM13.8889 13H6.11111C5.81643 13 5.53381 12.8946 5.32544 12.7071C5.11706 12.5196 5 12.2652 5 12C5 11.7348 5.11706 11.4804 5.32544 11.2929C5.53381 11.1054 5.81643 11 6.11111 11H13.8889C14.1836 11 14.4662 11.1054 14.6746 11.2929C14.8829 11.4804 15 11.7348 15 12C15 12.2652 14.8829 12.5196 14.6746 12.7071C14.4662 12.8946 14.1836 13 13.8889 13ZM3 17H17C17.2652 17 17.5196 16.8946 17.7071 16.7071C17.8946 16.5196 18 16.2652 18 16C18 15.7348 17.8946 15.4804 17.7071 15.2929C17.5196 15.1054 17.2652 15 17 15H3C2.73478 15 2.48043 15.1054 2.29289 15.2929C2.10536 15.4804 2 15.7348 2 16C2 16.2652 2.10536 16.5196 2.29289 16.7071C2.48043 16.8946 2.73478 17 3 17Z" fill="black"/>
</svg>
