<svg width="16" height="16" viewBox="0 0 16 16" fill="none" xmlns="http://www.w3.org/2000/svg">
<path fill-rule="evenodd" clip-rule="evenodd" d="M14.9356 13.2943L8.41813 2.22117C8.37266 2.15323 8.31063 2.09744 8.23763 2.05883C8.16463 2.02022 8.08295 2 7.99997 2C7.917 2 7.83532 2.02022 7.76232 2.05883C7.68932 2.09744 7.62729 2.15323 7.58182 2.22117L1.06439 13.2943C1.02221 13.3658 1 13.447 1 13.5295C1 13.6121 1.02221 13.6932 1.06439 13.7647C1.10477 13.8371 1.16464 13.8974 1.23751 13.9388C1.31038 13.9803 1.39346 14.0014 1.47774 13.9999H14.5222C14.6065 14.0014 14.6896 13.9803 14.7624 13.9388C14.8353 13.8974 14.8952 13.8371 14.9356 13.7647C14.9777 13.6932 14.9999 13.6121 14.9999 13.5295C14.9999 13.447 14.9777 13.3658 14.9356 13.2943ZM2.31405 13.0403L7.99517 3.39716L13.6859 13.0403H2.31405ZM7.51465 6.70868V9.53106C7.51465 9.65582 7.56529 9.77547 7.65542 9.86369C7.74556 9.9519 7.86781 10.0015 7.99528 10.0015C8.12276 10.0015 8.24501 9.9519 8.33515 9.86369C8.42528 9.77547 8.47592 9.65582 8.47592 9.53106V6.70868C8.47592 6.58392 8.42528 6.46427 8.33515 6.37606C8.24501 6.28784 8.12276 6.23828 7.99528 6.23828C7.86858 6.24069 7.74776 6.29102 7.65815 6.37872C7.56854 6.46642 7.51711 6.58468 7.51465 6.70868ZM8.71608 11.6292C8.71608 12.0189 8.3933 12.3348 7.99512 12.3348C7.59695 12.3348 7.27417 12.0189 7.27417 11.6292C7.27417 11.2395 7.59695 10.9236 7.99512 10.9236C8.3933 10.9236 8.71608 11.2395 8.71608 11.6292Z" fill="black"/>
</svg>
