<svg width="20" height="20" viewBox="0 0 20 20" fill="none" xmlns="http://www.w3.org/2000/svg">
<path d="M9.99999 1C7.61305 1 5.32386 1.94821 3.63604 3.63604C1.94821 5.32387 1 7.61305 1 10C1 12.3869 1.94821 14.6761 3.63604 16.364C5.32386 18.0518 7.61305 19 9.99999 19C10.2652 19 10.5196 18.8946 10.7071 18.7071C10.8946 18.5196 11 18.2652 11 18C11 17.7348 10.8946 17.4804 10.7071 17.2929C10.5196 17.1054 10.2652 17 9.99999 17C8.61552 17 7.26215 16.5895 6.111 15.8203C4.95986 15.0511 4.06265 13.9579 3.53284 12.6788C3.00303 11.3997 2.8644 9.99224 3.1345 8.63437C3.4046 7.2765 4.07128 6.02922 5.05025 5.05025C6.02922 4.07128 7.27649 3.4046 8.63436 3.1345C9.99223 2.86441 11.3997 3.00303 12.6788 3.53284C13.9579 4.06266 15.0511 4.95986 15.8203 6.11101C16.5894 7.26215 17 8.61553 17 10V11.25C17 11.6478 16.8419 12.0294 16.5606 12.3107C16.2793 12.592 15.8978 12.75 15.5 12.75C15.1022 12.75 14.7206 12.592 14.4393 12.3107C14.158 12.0294 14 11.6478 14 11.25V7C14 6.73478 13.8946 6.48043 13.7071 6.29289C13.5196 6.10536 13.2652 6 13 6C12.8422 6.00344 12.6874 6.0442 12.5484 6.11894C12.4093 6.19368 12.2899 6.30027 12.2 6.43C11.4288 5.82776 10.4785 5.50043 9.49999 5.5C8.7623 5.49784 8.0354 5.67706 7.38326 6.02189C6.73113 6.36673 6.17377 6.8666 5.76026 7.47749C5.34674 8.08839 5.08975 8.79158 5.01191 9.52515C4.93407 10.2587 5.03777 11.0002 5.31388 11.6843C5.58998 12.3683 6.03003 12.974 6.59528 13.448C7.16052 13.9221 7.83363 14.2498 8.55535 14.4025C9.27707 14.5552 10.0253 14.5281 10.734 14.3237C11.4428 14.1192 12.0905 13.7436 12.62 13.23C13.0446 13.8449 13.6549 14.3077 14.3615 14.5508C15.0681 14.7939 15.8339 14.8044 16.5469 14.5809C17.26 14.3574 17.8828 13.9115 18.3241 13.3086C18.7655 12.7056 19.0024 11.9772 19 11.23V10C19 7.61305 18.0518 5.32387 16.3639 3.63604C14.6761 1.94821 12.3869 1 9.99999 1V1ZM9.49999 12.5C9.00554 12.5 8.52219 12.3534 8.11107 12.0787C7.69994 11.804 7.37951 11.4135 7.1903 10.9567C7.00108 10.4999 6.95157 9.99723 7.04803 9.51227C7.14449 9.02732 7.3826 8.58186 7.73223 8.23223C8.08186 7.8826 8.52731 7.6445 9.01227 7.54804C9.49722 7.45157 9.99988 7.50108 10.4567 7.6903C10.9135 7.87952 11.304 8.19995 11.5787 8.61107C11.8534 9.0222 12 9.50555 12 10C12 10.3283 11.9353 10.6534 11.8097 10.9567C11.6841 11.26 11.4999 11.5356 11.2678 11.7678C11.0356 11.9999 10.76 12.1841 10.4567 12.3097C10.1534 12.4353 9.8283 12.5 9.49999 12.5Z" fill="black"/>
</svg>
