<svg width="20" height="20" viewBox="0 0 20 20" fill="none" xmlns="http://www.w3.org/2000/svg">
<path d="M19.0001 9.46791H3.41204L8.07147 4.7396C8.16518 4.64507 8.23957 4.53261 8.29033 4.4087C8.34109 4.28479 8.36723 4.15188 8.36723 4.01765C8.36723 3.88341 8.34109 3.7505 8.29033 3.62659C8.23957 3.50268 8.16518 3.39022 8.07147 3.29569C7.88413 3.1063 7.63071 3 7.36655 3C7.1024 3 6.84898 3.1063 6.66164 3.29569L0.292424 9.77296C0.200272 9.87266 0.128855 9.99025 0.0824498 10.1187C0.0280996 10.2418 0 10.3752 0 10.5102C0 10.6451 0.0280996 10.7785 0.0824498 10.9017C0.131187 11.0229 0.202484 11.1333 0.292424 11.227L6.66164 17.7043C6.84898 17.8937 7.1024 18 7.36655 18C7.63071 18 7.88413 17.8937 8.07147 17.7043C8.16518 17.6098 8.23957 17.4973 8.29033 17.3734C8.34109 17.2495 8.36723 17.1166 8.36723 16.9824C8.36723 16.8481 8.34109 16.7152 8.29033 16.5913C8.23957 16.4674 8.16518 16.3549 8.07147 16.2604L3.41204 11.5016H19.0001C19.2653 11.5016 19.5196 11.3945 19.7071 11.2038C19.8947 11.0131 20 10.7544 20 10.4847C20 10.2151 19.8947 9.95643 19.7071 9.76573C19.5196 9.57504 19.2653 9.46791 19.0001 9.46791Z" fill="black"/>
</svg>
