<svg width="20" height="20" viewBox="0 0 20 20" fill="none" xmlns="http://www.w3.org/2000/svg">
<path d="M15.0001 17.9999C14.7745 17.9986 14.556 17.921 14.3801 17.7799L10.0001 14.2799L5.79017 17.6499C5.62579 17.7685 5.43363 17.8428 5.23221 17.8655C5.03078 17.8883 4.82689 17.8588 4.64018 17.7799C4.45331 17.6863 4.2952 17.544 4.18255 17.368C4.0699 17.1919 4.00689 16.9888 4.00018 16.7799V3.15999C3.9948 2.85933 4.10844 2.56872 4.31634 2.35145C4.52424 2.13419 4.80957 2.00787 5.11017 2H15.0001C15.2653 2 15.5197 2.10536 15.7072 2.29289C15.8947 2.48043 16.0001 2.73478 16.0001 2.99999V16.9999C15.9996 17.1884 15.9458 17.3729 15.8449 17.5321C15.7441 17.6913 15.6003 17.8188 15.4301 17.8999C15.2971 17.968 15.1495 18.0023 15.0001 17.9999ZM10.0001 11.9999C10.2257 12.0012 10.4442 12.0788 10.6201 12.2199L14.0001 14.9199V3.99998H6.00017V14.9199L9.38014 12.2199C9.55608 12.0788 9.77457 12.0012 10.0001 11.9999Z" fill="black"/>
</svg>
