<svg width="20" height="20" viewBox="0 0 20 20" fill="none" xmlns="http://www.w3.org/2000/svg">
<path d="M10 2C8.41775 2 6.87103 2.46919 5.55544 3.34824C4.23985 4.22729 3.21447 5.47672 2.60897 6.93853C2.00347 8.40034 1.84504 10.0089 2.15372 11.5607C2.4624 13.1126 3.22433 14.538 4.34315 15.6569C5.46197 16.7757 6.88743 17.5376 8.43928 17.8463C9.99113 18.155 11.5997 17.9965 13.0615 17.391C14.5233 16.7855 15.7727 15.7602 16.6518 14.4446C17.5308 13.129 18 11.5822 18 10C17.9975 7.87903 17.1539 5.84565 15.6541 4.3459C14.1544 2.84615 12.121 2.00249 10 2ZM3.88236 10C3.88295 8.70268 4.29849 7.43957 5.06824 6.39529L13.6047 14.9318C12.694 15.6001 11.6158 16.0029 10.49 16.0953C9.36414 16.1876 8.23474 15.966 7.22731 15.4549C6.21987 14.9439 5.37389 14.1635 4.78338 13.2005C4.19287 12.2375 3.88097 11.1296 3.88236 10ZM14.9318 13.6047L6.3953 5.06823C7.57189 4.20736 9.0176 3.79571 10.4712 3.90766C11.9248 4.01962 13.2904 4.64779 14.3213 5.67869C15.3522 6.70958 15.9804 8.0752 16.0923 9.5288C16.2043 10.9824 15.7926 12.4281 14.9318 13.6047Z" fill="black"/>
</svg>
