<svg width="20" height="20" viewBox="0 0 20 20" fill="none" xmlns="http://www.w3.org/2000/svg">
<path d="M6.69185 2.00002C6.82724 1.99926 6.96146 2.02426 7.0868 2.07358C7.21214 2.1229 7.32615 2.19557 7.42227 2.28743L14.6957 9.29432C14.7921 9.38645 14.8687 9.49607 14.9209 9.61684C14.9731 9.73761 15 9.86715 15 9.99798C15 10.1288 14.9731 10.2584 14.9209 10.3791C14.8687 10.4999 14.7921 10.6095 14.6957 10.7016L7.42228 17.7085C7.32635 17.8009 7.21248 17.8742 7.08715 17.9243C6.96183 17.9743 6.8275 18 6.69185 18C6.5562 18 6.42187 17.9743 6.29654 17.9243C6.17122 17.8742 6.05734 17.8009 5.96142 17.7085C5.8655 17.6161 5.78941 17.5064 5.7375 17.3857C5.68559 17.265 5.65887 17.1356 5.65887 17.0049C5.65887 16.8742 5.68559 16.7448 5.7375 16.6241C5.78941 16.5033 5.8655 16.3936 5.96142 16.3012L12.5147 9.99798L5.96142 3.68484C5.76981 3.49915 5.66226 3.24796 5.66226 2.98614C5.66226 2.72431 5.76981 2.47312 5.96142 2.28743C6.05755 2.19557 6.17155 2.1229 6.29689 2.07358C6.42224 2.02426 6.55645 1.99926 6.69185 2.00002Z" fill="black"/>
</svg>
