<?xml version="1.0" encoding="utf-8"?>
<!-- Generator: Adobe Illustrator 26.0.2, SVG Export Plug-In . SVG Version: 6.00 Build 0)  -->
<svg version="1.1" id="Layer_1" xmlns="http://www.w3.org/2000/svg" xmlns:xlink="http://www.w3.org/1999/xlink" x="0px" y="0px"
	 viewBox="0 0 12 12" style="enable-background:new 0 0 12 12;" xml:space="preserve">
<style type="text/css">
	.st0{fill-rule:evenodd;clip-rule:evenodd;fill:#ACACAC;}
</style>
<path class="st0" d="M6.5,2c0.8,0.7,1.3,1.3,1.3,2.4S7.3,6.2,6.5,6.8c-1,0.8-2.4,1-3.6,0.7C2.2,8.2,1.3,8.4,0.5,8.4
	c-0.1,0-0.2,0-0.2-0.1C0.1,8.3,0.1,8.2,0,8.2C0,8,0,7.9,0,7.9c0-0.1,0.1-0.1,0.1-0.2C0.4,7.3,0.6,7,0.8,6.6C0.4,6,0,5.3,0,4.6
	c0.1-1,0.5-1.8,1.3-2.4c0.8-0.8,1.6-1,2.6-1S5.8,1.3,6.5,2z M2.4,7l0.4-0.1c1.1,0.2,2.2,0.4,3.1-0.5c0.6-0.5,1-1,1-1.8
	s-0.4-1.3-1-1.8S4.7,2.2,4,2.2C3.1,2.2,2.6,2.3,2,2.8C1.3,3.2,1,3.7,1,4.6C1,5.4,1.4,5.9,2,6.5L1.7,7L1.4,7.3C1.8,7.3,2.2,7.1,2.4,7
	z M12,7c0,0.8-0.4,1.6-0.8,2c0.2,0.4,0.5,0.7,0.7,1.1c0.1,0,0.1,0.1,0.1,0.1c0,0.1,0,0.2,0,0.2c0,0.1-0.1,0.1-0.1,0.2
	c-0.1,0-0.1,0.1-0.2,0.1c-0.8,0-1.7-0.2-2.4-0.7c-0.5,0.1-0.8,0.1-1.2,0.1c-0.7,0-1.4-0.1-2-0.5C5.5,9.4,4.9,8.9,4.6,8.4
	c0.4,0,0.6-0.1,1-0.2C5.9,8.5,6.2,8.9,6.7,9c0.5,0.2,1,0.2,1.4,0.2c0.2,0,0.6,0,0.8-0.1h0.4l0.2,0.2c0.2,0.2,0.6,0.4,1,0.5
	c0-0.1-0.1-0.1-0.1-0.2c0,0,0-0.1-0.1-0.1l-0.2-0.6c0,0,0,0,0.1-0.1c0.5-0.6,1-1.1,1-1.8s-0.4-1.2-0.8-1.7C9.6,4.7,9,4.4,8.4,4.6
	c0-0.4,0-0.7-0.1-1c1,0,1.8,0.2,2.5,1C11.5,5.2,12,5.9,12,7z"/>
</svg>
