<svg width="16" height="16" viewBox="0 0 16 16" fill="none" xmlns="http://www.w3.org/2000/svg">
<path d="M8.66253 8L14.8586 1.79459C14.9032 1.7527 14.9388 1.70211 14.9631 1.64594C14.9875 1.58976 15 1.5292 15 1.46799C15 1.40678 14.9875 1.34622 14.9631 1.29004C14.9388 1.23387 14.9032 1.18328 14.8586 1.14139C14.8167 1.09676 14.7661 1.06118 14.71 1.03686C14.6538 1.01255 14.5932 1 14.532 1C14.4708 1 14.4102 1.01255 14.3541 1.03686C14.2979 1.06118 14.2473 1.09676 14.2054 1.14139L8 7.33747L1.79459 1.14139C1.7527 1.09676 1.70211 1.06118 1.64594 1.03686C1.58976 1.01255 1.5292 1 1.46799 1C1.40678 1 1.34622 1.01255 1.29004 1.03686C1.23387 1.06118 1.18328 1.09676 1.14139 1.14139C1.09676 1.18328 1.06118 1.23387 1.03686 1.29004C1.01255 1.34622 1 1.40678 1 1.46799C1 1.5292 1.01255 1.58976 1.03686 1.64594C1.06118 1.70211 1.09676 1.7527 1.14139 1.79459L7.33747 8L1.14139 14.2054C1.09676 14.2473 1.06118 14.2979 1.03686 14.3541C1.01255 14.4102 1 14.4708 1 14.532C1 14.5932 1.01255 14.6538 1.03686 14.71C1.06118 14.7661 1.09676 14.8167 1.14139 14.8586C1.18305 14.9034 1.23363 14.939 1.28988 14.9632C1.34613 14.9873 1.4068 14.9993 1.46799 14.9986C1.52918 14.9993 1.58985 14.9873 1.6461 14.9632C1.70235 14.939 1.75293 14.9034 1.79459 14.8586L8 8.66253L14.2054 14.8586C14.2473 14.9032 14.2979 14.9388 14.3541 14.9631C14.4102 14.9875 14.4708 15 14.532 15C14.5932 15 14.6538 14.9875 14.71 14.9631C14.7661 14.9388 14.8167 14.9032 14.8586 14.8586C14.9032 14.8167 14.9388 14.7661 14.9631 14.71C14.9875 14.6538 15 14.5932 15 14.532C15 14.4708 14.9875 14.4102 14.9631 14.3541C14.9388 14.2979 14.9032 14.2473 14.8586 14.2054L8.66253 8Z" fill="black"/>
</svg>
