<svg width="20" height="20" viewBox="0 0 20 20" fill="none" xmlns="http://www.w3.org/2000/svg">
<path d="M11.9309 10L19.6546 2.27631C19.8863 2.01557 20.0097 1.67616 19.9994 1.32749C19.9891 0.978825 19.8461 0.647254 19.5994 0.400602C19.3527 0.153949 19.0212 0.0108566 18.6725 0.000592806C18.3238 -0.00967101 17.9844 0.11367 17.7237 0.345386L10 8.06908L2.27631 0.345386C2.01557 0.11367 1.67616 -0.00967101 1.32749 0.000592806C0.978825 0.0108566 0.647254 0.153949 0.400602 0.400602C0.153949 0.647254 0.0108566 0.978825 0.000592806 1.32749C-0.00967101 1.67616 0.11367 2.01557 0.345386 2.27631L8.06908 10L0.345386 17.7237C0.11367 17.9844 -0.00967101 18.3238 0.000592806 18.6725C0.0108566 19.0212 0.153949 19.3527 0.400602 19.5994C0.647254 19.8461 0.978825 19.9891 1.32749 19.9994C1.67616 20.0097 2.01557 19.8863 2.27631 19.6546L10 11.9309L17.7237 19.6546C17.9844 19.8863 18.3238 20.0097 18.6725 19.9994C19.0212 19.9891 19.3527 19.8461 19.5994 19.5994C19.8461 19.3527 19.9891 19.0212 19.9994 18.6725C20.0097 18.3238 19.8863 17.9844 19.6546 17.7237L11.9309 10Z" fill="black"/>
</svg>
