<?xml version="1.0" encoding="utf-8"?>
<!-- Generator: Adobe Illustrator 26.0.2, SVG Export Plug-In . SVG Version: 6.00 Build 0)  -->
<svg version="1.1" id="Layer_1" xmlns="http://www.w3.org/2000/svg" xmlns:xlink="http://www.w3.org/1999/xlink" x="0px" y="0px"
	 viewBox="0 0 12 12" style="enable-background:new 0 0 12 12;" xml:space="preserve">
<style type="text/css">
	.st0{fill-rule:evenodd;clip-rule:evenodd;fill:#ACACAC;}
</style>
<path class="st0" d="M8.8,1.3l1.9,1.9c0.1,0.1,0.2,0.2,0.2,0.4C11,3.7,11,3.8,11,3.9v5.6c0,0.4-0.2,0.7-0.4,1
	c-0.3,0.3-0.6,0.4-1,0.4H2.4c-0.4,0-0.7-0.2-1-0.4C1.2,10.3,1,9.9,1,9.6V2.4c0-0.4,0.2-0.7,0.4-1C1.7,1.2,2.1,1,2.4,1h5.6
	C8.3,1,8.6,1.1,8.8,1.3z M7.1,2.1H3.9v1.8h3.2V2.1z M9.8,9.8c0.1-0.1,0.1-0.2,0.1-0.3l0-5.6c0,0,0,0,0,0s0,0,0,0L8.1,2.2v2.2
	c0,0.1-0.1,0.3-0.2,0.4C7.9,4.9,7.8,4.9,7.6,4.9H3.3C3.2,4.9,3,4.9,2.9,4.8C2.8,4.7,2.8,4.5,2.8,4.4V2.1H2.4c-0.1,0-0.2,0-0.3,0.1
	C2.1,2.2,2.1,2.3,2.1,2.4v7.1c0,0.1,0,0.2,0.1,0.3c0.1,0.1,0.2,0.1,0.3,0.1h7.1C9.7,9.9,9.8,9.9,9.8,9.8z M7.4,7.4
	c0,0.8-0.6,1.4-1.4,1.4S4.6,8.2,4.6,7.4C4.6,6.6,5.2,6,6,6S7.4,6.6,7.4,7.4z"/>
</svg>
