<svg width="20" height="20" viewBox="0 0 20 20" fill="none" xmlns="http://www.w3.org/2000/svg">
<path d="M2.00002 13.3082C1.99926 13.1728 2.02426 13.0385 2.07358 12.9132C2.1229 12.7879 2.19557 12.6739 2.28743 12.5777L9.29432 5.30431C9.38645 5.20788 9.49607 5.13135 9.61684 5.07912C9.73761 5.02689 9.86715 5 9.99798 5C10.1288 5 10.2584 5.02689 10.3791 5.07912C10.4999 5.13135 10.6095 5.20788 10.7016 5.30431L17.7085 12.5777C17.8009 12.6736 17.8742 12.7875 17.9243 12.9128C17.9743 13.0382 18 13.1725 18 13.3082C18 13.4438 17.9743 13.5781 17.9243 13.7035C17.8742 13.8288 17.8009 13.9427 17.7085 14.0386C17.6161 14.1345 17.5064 14.2106 17.3857 14.2625C17.265 14.3144 17.1356 14.3411 17.0049 14.3411C16.8742 14.3411 16.7448 14.3144 16.6241 14.2625C16.5033 14.2106 16.3936 14.1345 16.3012 14.0386L9.99798 7.48531L3.68484 14.0386C3.49915 14.2302 3.24796 14.3377 2.98614 14.3377C2.72431 14.3377 2.47312 14.2302 2.28743 14.0386C2.19557 13.9425 2.1229 13.8285 2.07358 13.7031C2.02426 13.5778 1.99926 13.4435 2.00002 13.3082Z" fill="black"/>
</svg>
