<svg width="20" height="20" viewBox="0 0 20 20" fill="none" xmlns="http://www.w3.org/2000/svg">
<path d="M18 6.69185C18.0007 6.82724 17.9757 6.96146 17.9264 7.0868C17.8771 7.21214 17.8044 7.32615 17.7126 7.42227L10.7057 14.6957C10.6135 14.7921 10.5039 14.8687 10.3832 14.9209C10.2624 14.9731 10.1329 15 10.002 15C9.87119 15 9.74165 14.9731 9.62088 14.9209C9.5001 14.8687 9.39049 14.7921 9.29836 14.6957L2.29147 7.42228C2.19906 7.32635 2.12576 7.21248 2.07575 7.08715C2.02574 6.96183 2 6.8275 2 6.69185C2 6.5562 2.02574 6.42187 2.07575 6.29654C2.12576 6.17122 2.19906 6.05734 2.29147 5.96142C2.38387 5.8655 2.49357 5.78941 2.61431 5.7375C2.73504 5.68559 2.86445 5.65887 2.99513 5.65887C3.12581 5.65887 3.25521 5.68559 3.37595 5.7375C3.49668 5.78941 3.60638 5.8655 3.69879 5.96142L10.002 12.5147L16.3152 5.96142C16.5008 5.76981 16.752 5.66226 17.0139 5.66226C17.2757 5.66226 17.5269 5.76981 17.7126 5.96142C17.8044 6.05755 17.8771 6.17155 17.9264 6.29689C17.9757 6.42224 18.0007 6.55645 18 6.69185Z" fill="black"/>
</svg>
