<svg width="20" height="20" viewBox="0 0 20 20" fill="none" xmlns="http://www.w3.org/2000/svg">
<path d="M17.71 3.29002L15.71 1.29002C15.6166 1.19734 15.5058 1.12401 15.3839 1.07425C15.2621 1.02448 15.1316 0.999256 15 1.00002H9C8.73479 1.00002 8.48043 1.10537 8.2929 1.29291C8.10536 1.48045 8 1.7348 8 2.00002V7.00002H3C2.73478 7.00002 2.48043 7.10538 2.29289 7.29291C2.10536 7.48045 2 7.7348 2 8.00002V18C2 18.2652 2.10536 18.5196 2.29289 18.7071C2.48043 18.8947 2.73478 19 3 19H11C11.2652 19 11.5196 18.8947 11.7071 18.7071C11.8946 18.5196 12 18.2652 12 18V13H17C17.2652 13 17.5196 12.8947 17.7071 12.7071C17.8947 12.5196 18 12.2652 18 12V4.00002C18.0008 3.86841 17.9755 3.73795 17.9258 3.61611C17.876 3.49427 17.8027 3.38346 17.71 3.29002ZM10 17H4V9.00002H8V12C8 12.2652 8.10536 12.5196 8.2929 12.7071C8.48043 12.8947 8.73479 13 9 13H10V17ZM16 11H10V3.00002H14V4.00002C14 4.26523 14.1054 4.51959 14.2929 4.70713C14.4804 4.89466 14.7348 5.00002 15 5.00002H16V11Z" fill="black"/>
</svg>
