<svg width="20" height="20" viewBox="0 0 20 20" fill="none" xmlns="http://www.w3.org/2000/svg">
<path fill-rule="evenodd" clip-rule="evenodd" d="M6 10.25C6 11.3546 5.10457 12.25 4 12.25C2.89543 12.25 2 11.3546 2 10.25C2 9.14543 2.89543 8.25 4 8.25C5.10457 8.25 6 9.14543 6 10.25ZM10 12.25C11.1046 12.25 12 11.3546 12 10.25C12 9.14543 11.1046 8.25 10 8.25C8.89543 8.25 8 9.14543 8 10.25C8 11.3546 8.89543 12.25 10 12.25ZM16 12.25C17.1046 12.25 18 11.3546 18 10.25C18 9.14543 17.1046 8.25 16 8.25C14.8954 8.25 14 9.14543 14 10.25C14 11.3546 14.8954 12.25 16 12.25Z" fill="black"/>
</svg>
