<svg width="16" height="16" viewBox="0 0 16 16" fill="none" xmlns="http://www.w3.org/2000/svg">
<path d="M13.9852 5.22855C13.9568 5.16035 13.9068 5.10199 13.8421 5.06134C13.7774 5.0207 13.701 4.99971 13.6232 5.00121H2.42022C2.33679 4.99489 2.25336 5.01345 2.18174 5.05424C2.11012 5.09504 2.05392 5.15602 2.0211 5.22855C1.99606 5.29992 1.99324 5.37655 2.01298 5.44938C2.03272 5.52221 2.07419 5.58819 2.13248 5.63951L7.7015 10.8859C7.73711 10.9219 7.78021 10.9506 7.82812 10.9702C7.87602 10.9899 7.92771 11 7.97995 11C8.0322 11 8.08388 10.9899 8.13179 10.9702C8.17969 10.9506 8.22279 10.9219 8.2584 10.8859L13.8274 5.63951C13.8959 5.59504 13.9479 5.53153 13.9762 5.45785C14.0045 5.38416 14.0076 5.304 13.9852 5.22855Z" fill="black"/>
</svg>
