<svg width="20" height="20" viewBox="0 0 20 20" fill="none" xmlns="http://www.w3.org/2000/svg">
<path d="M17 4H14V2C14 1.73478 13.8946 1.48043 13.7071 1.29289C13.5196 1.10536 13.2652 1 13 1H7C6.73478 1 6.48043 1.10536 6.29289 1.29289C6.10536 1.48043 6 1.73478 6 2V4H3C2.73478 4 2.48043 4.10536 2.29289 4.29289C2.10536 4.48043 2 4.73478 2 5C2 5.26522 2.10536 5.51957 2.29289 5.70711C2.48043 5.89464 2.73478 6 3 6H3.07L4 18.08C4.02015 18.3311 4.13434 18.5654 4.31974 18.7359C4.50514 18.9065 4.74808 19.0008 5 19H15C15.2519 19.0008 15.4949 18.9065 15.6803 18.7359C15.8657 18.5654 15.9798 18.3311 16 18.08L16.93 6H17C17.2652 6 17.5196 5.89464 17.7071 5.70711C17.8946 5.51957 18 5.26522 18 5C18 4.73478 17.8946 4.48043 17.7071 4.29289C17.5196 4.10536 17.2652 4 17 4ZM8 3H12V4H8V3ZM5.93 17L5.08 6H14.92L14.07 17H5.93Z" fill="black"/>
</svg>
