<svg width="20" height="20" viewBox="0 0 20 20" fill="none" xmlns="http://www.w3.org/2000/svg">
<path d="M18.4156 3.66186L16.3259 1.55998C15.9478 1.19643 15.4439 0.993408 14.9196 0.993408C14.3954 0.993408 13.8914 1.19643 13.5133 1.55998L3.01545 12.0694C2.90902 12.1794 2.8279 12.3114 2.77776 12.4561L1.02482 17.7207C0.97103 17.892 0.964732 18.0747 1.00659 18.2493C1.04846 18.424 1.13691 18.5839 1.2625 18.7121C1.35504 18.804 1.46479 18.8767 1.58545 18.9261C1.70612 18.9754 1.83532 19.0004 1.96566 18.9997C2.07344 19.0027 2.18086 18.9859 2.28258 18.9501L7.53151 17.1952C7.67155 17.1513 7.80009 17.0768 7.90785 16.9771L18.4057 6.46768C18.5929 6.28403 18.7418 6.06503 18.8438 5.82336C18.9458 5.58169 18.9988 5.32216 18.9999 5.05981C18.9977 4.53476 18.7876 4.03202 18.4156 3.66186ZM8.3238 13.7648L6.01625 13.973L6.22423 11.6629L12.8597 5.05981L14.9592 7.16169L8.3238 13.7648ZM3.53044 16.4615L4.58022 13.3087L5.12492 12.7634L4.93676 14.4786C4.92874 14.5509 4.93704 14.6241 4.96104 14.6927C4.98504 14.7613 5.02412 14.8237 5.07541 14.8752C5.16856 14.9661 5.29208 15.019 5.42203 15.0239L7.2344 14.8752L6.6798 15.4205L3.53044 16.4615Z" fill="black"/>
</svg>
