<svg width="20" height="20" viewBox="0 0 20 20" fill="none" xmlns="http://www.w3.org/2000/svg">
<path fill-rule="evenodd" clip-rule="evenodd" d="M3.05051 2H11.4545C11.7332 2 12.0004 2.10536 12.1974 2.29289C12.3944 2.48043 12.5051 2.73478 12.5051 3V17C12.5051 17.2652 12.3944 17.5196 12.1974 17.7071C12.0004 17.8946 11.7332 18 11.4545 18H8.6497V15.33C8.6497 14.9773 8.5025 14.639 8.24047 14.3895C7.97845 14.1401 7.62308 14 7.25253 14C6.88197 14 6.5266 14.1401 6.26458 14.3895C6.00255 14.639 5.85535 14.9773 5.85535 15.33V18H3.05051C2.77189 18 2.50469 17.8946 2.30769 17.7071C2.11068 17.5196 2 17.2652 2 17V3C2 2.73478 2.11068 2.48043 2.30769 2.29289C2.50469 2.10536 2.77189 2 3.05051 2ZM4.10101 11H6.20202V9H4.10101V11ZM4.10101 7H6.20202V5H4.10101V7ZM8.30303 11H10.404V9H8.30303V11ZM8.30303 7H10.404V5H8.30303V7ZM16.7249 9.27504L17.8392 8.16081C17.9377 8.0623 18.0694 8.00508 18.2053 8.00174C18.3413 7.99839 18.4704 8.04918 18.5641 8.14295C18.6579 8.23672 18.7087 8.36578 18.7053 8.50174C18.702 8.63769 18.6448 8.76941 18.5463 8.86791L17.432 9.98214L18.4927 11.0428C18.5865 11.1366 18.6373 11.2656 18.6339 11.4016C18.6306 11.5375 18.5733 11.6693 18.4748 11.7678C18.3763 11.8663 18.2446 11.9235 18.1087 11.9268C17.9727 11.9302 17.8436 11.8794 17.7499 11.7856L16.6892 10.725L15.575 11.8392C15.4765 11.9377 15.3448 11.9949 15.2088 11.9983C15.0729 12.0016 14.9438 11.9508 14.85 11.857C14.7563 11.7633 14.7055 11.6342 14.7088 11.4983C14.7122 11.3623 14.7694 11.2306 14.8679 11.1321L15.9821 10.0179L14.9214 8.9572C14.8277 8.86343 14.7769 8.73437 14.7802 8.59841C14.7836 8.46246 14.8408 8.33074 14.9393 8.23223C15.0378 8.13373 15.1695 8.07651 15.3055 8.07316C15.4414 8.06981 15.5705 8.12061 15.6643 8.21438L16.7249 9.27504Z" fill="black"/>
</svg>
