<svg width="20" height="20" viewBox="0 0 20 20" fill="none" xmlns="http://www.w3.org/2000/svg">
<path fill-rule="evenodd" clip-rule="evenodd" d="M3.05051 2H11.4545C11.7332 2 12.0004 2.10536 12.1974 2.29289C12.3944 2.48043 12.5051 2.73478 12.5051 3V17C12.5051 17.2652 12.3944 17.5196 12.1974 17.7071C12.0004 17.8946 11.7332 18 11.4545 18H8.6497V15.33C8.6497 14.9773 8.5025 14.639 8.24047 14.3895C7.97845 14.1401 7.62308 14 7.25253 14C6.88197 14 6.5266 14.1401 6.26458 14.3895C6.00255 14.639 5.85535 14.9773 5.85535 15.33V18H3.05051C2.77189 18 2.50469 17.8946 2.30769 17.7071C2.11068 17.5196 2 17.2652 2 17V3C2 2.73478 2.11068 2.48043 2.30769 2.29289C2.50469 2.10536 2.77189 2 3.05051 2ZM4.10101 11H6.20202V9H4.10101V11ZM4.10101 7H6.20202V5H4.10101V7ZM8.30303 11H10.404V9H8.30303V11ZM8.30303 7H10.404V5H8.30303V7ZM17.2323 9.5H18.8081C18.9474 9.5 19.081 9.55268 19.1795 9.64645C19.278 9.74022 19.3333 9.86739 19.3333 10C19.3333 10.1326 19.278 10.2598 19.1795 10.3536C19.081 10.4473 18.9474 10.5 18.8081 10.5H17.2323V12C17.2323 12.1326 17.177 12.2598 17.0785 12.3536C16.98 12.4473 16.8464 12.5 16.7071 12.5C16.5678 12.5 16.4342 12.4473 16.3357 12.3536C16.2372 12.2598 16.1818 12.1326 16.1818 12V10.5H14.6061C14.4668 10.5 14.3332 10.4473 14.2347 10.3536C14.1361 10.2598 14.0808 10.1326 14.0808 10C14.0808 9.86739 14.1361 9.74022 14.2347 9.64645C14.3332 9.55268 14.4668 9.5 14.6061 9.5H16.1818V8C16.1818 7.86739 16.2372 7.74021 16.3357 7.64645C16.4342 7.55268 16.5678 7.5 16.7071 7.5C16.8464 7.5 16.98 7.55268 17.0785 7.64645C17.177 7.74021 17.2323 7.86739 17.2323 8V9.5Z" fill="black"/>
</svg>
