<svg width="20" height="20" viewBox="0 0 20 20" fill="none" xmlns="http://www.w3.org/2000/svg">
<path fill-rule="evenodd" clip-rule="evenodd" d="M3.05051 2H11.4545C11.7332 2 12.0004 2.10536 12.1974 2.29289C12.3944 2.48043 12.5051 2.73478 12.5051 3V17C12.5051 17.2652 12.3944 17.5196 12.1974 17.7071C12.0004 17.8946 11.7332 18 11.4545 18H8.6497V15.33C8.6497 14.9773 8.5025 14.639 8.24047 14.3895C7.97845 14.1401 7.62308 14 7.25253 14C6.88197 14 6.5266 14.1401 6.26458 14.3895C6.00255 14.639 5.85535 14.9773 5.85535 15.33V18H3.05051C2.77189 18 2.50469 17.8946 2.30769 17.7071C2.11068 17.5196 2 17.2652 2 17V3C2 2.73478 2.11068 2.48043 2.30769 2.29289C2.50469 2.10536 2.77189 2 3.05051 2ZM4.10101 11H6.20202V9H4.10101V11ZM4.10101 7H6.20202V5H4.10101V7ZM8.30303 11H10.404V9H8.30303V11ZM8.30303 7H10.404V5H8.30303V7ZM19.0084 7.53804C19.0716 7.5641 19.1286 7.60222 19.1757 7.65005C19.226 7.69494 19.266 7.74916 19.2934 7.80936C19.3208 7.86956 19.3349 7.93446 19.3349 8.00005C19.3349 8.06565 19.3208 8.13055 19.2934 8.19075C19.266 8.25095 19.226 8.30516 19.1757 8.35005L16.0242 11.3501C15.977 11.3979 15.9201 11.436 15.8568 11.4621C15.7936 11.4881 15.7254 11.5016 15.6565 11.5016C15.5876 11.5016 15.5194 11.4881 15.4562 11.4621C15.393 11.436 15.336 11.3979 15.2888 11.3501L13.7131 9.85005C13.6156 9.75723 13.5608 9.63133 13.5608 9.50005C13.5608 9.36878 13.6156 9.24288 13.7131 9.15005C13.8106 9.05723 13.9429 9.00508 14.0808 9.00508C14.2187 9.00508 14.3509 9.05723 14.4484 9.15005L15.6565 10.2901L18.4404 7.65005C18.4875 7.60222 18.5445 7.5641 18.6077 7.53804C18.6709 7.51198 18.7391 7.49854 18.808 7.49854C18.8769 7.49854 18.9451 7.51198 19.0084 7.53804Z" fill="black"/>
</svg>
