<svg width="16" height="16" viewBox="0 0 16 16" fill="none" xmlns="http://www.w3.org/2000/svg">
<path d="M14.7972 4.96889C14.7366 4.92523 14.6658 4.89525 14.5903 4.88136C14.5149 4.86746 14.4369 4.87004 14.3628 4.88889L10.6552 6.05333V4.44444C10.6552 4.32657 10.6043 4.21352 10.5138 4.13017C10.4232 4.04683 10.3004 4 10.1724 4H1.48276C1.35472 4 1.23193 4.04683 1.1414 4.13017C1.05086 4.21352 1 4.32657 1 4.44444V11.5556C1 11.6734 1.05086 11.7865 1.1414 11.8698C1.23193 11.9532 1.35472 12 1.48276 12H10.1724C10.3004 12 10.4232 11.9532 10.5138 11.8698C10.6043 11.7865 10.6552 11.6734 10.6552 11.5556V9.94667L14.3628 11.1111C14.4138 11.1196 14.4662 11.1196 14.5172 11.1111C14.6173 11.1118 14.7152 11.0839 14.7972 11.0311C14.8592 10.9888 14.9097 10.9339 14.9448 10.8707C14.98 10.8075 14.9989 10.7377 15 10.6667V5.33333C14.9989 5.26233 14.98 5.19252 14.9448 5.12931C14.9097 5.06611 14.8592 5.01122 14.7972 4.96889ZM9.68966 11.1111H1.96552V4.88889H9.68966V11.1111ZM14.0345 10.0533L10.6552 9.01333V6.98667L14.0345 5.94667V10.0533Z" fill="black"/>
</svg>
