<svg width="16" height="16" viewBox="0 0 16 16" fill="none" xmlns="http://www.w3.org/2000/svg">
<path d="M14.8577 7.65279L12.8187 5.61403C12.7739 5.5692 12.7206 5.53363 12.662 5.50937C12.6035 5.48511 12.5407 5.47262 12.4773 5.47262C12.4138 5.47262 12.351 5.48511 12.2925 5.50937C12.2339 5.53363 12.1806 5.5692 12.1358 5.61403C12.091 5.65886 12.0554 5.71209 12.0311 5.77066C12.0069 5.82924 11.9944 5.89202 11.9944 5.95543C11.9944 6.01883 12.0069 6.08161 12.0311 6.14019C12.0554 6.19876 12.091 6.25199 12.1358 6.29682L13.3573 7.51815H8.48091V2.64245L9.70241 3.88301C9.74559 3.92901 9.79774 3.96567 9.85564 3.99073C9.91354 4.01579 9.97596 4.02872 10.039 4.02872C10.1021 4.02872 10.1646 4.01579 10.2225 3.99073C10.2804 3.96567 10.3325 3.92901 10.3757 3.88301C10.4217 3.83984 10.4584 3.7877 10.4834 3.72981C10.5085 3.67192 10.5214 3.60951 10.5214 3.54642C10.5214 3.48334 10.5085 3.42093 10.4834 3.36304C10.4584 3.30515 10.4217 3.25301 10.3757 3.20984L8.33664 1.14223C8.29193 1.09716 8.23874 1.06139 8.18014 1.03698C8.12153 1.01257 8.05868 1 7.99519 1C7.93171 1 7.86885 1.01257 7.81025 1.03698C7.75164 1.06139 7.69845 1.09716 7.65375 1.14223L5.6147 3.18099C5.52658 3.27087 5.47723 3.39171 5.47723 3.51757C5.47723 3.64343 5.52658 3.76428 5.6147 3.85416C5.6594 3.89923 5.71259 3.935 5.77119 3.95941C5.8298 3.98382 5.89266 3.99639 5.95614 3.99639C6.01963 3.99639 6.08248 3.98382 6.14109 3.95941C6.19969 3.935 6.25288 3.89923 6.29759 3.85416L7.51909 2.64245V7.51815H2.64268L3.88343 6.29682C3.9285 6.25212 3.96428 6.19894 3.98869 6.14034C4.01311 6.08175 4.02568 6.0189 4.02568 5.95543C4.02568 5.89195 4.01311 5.8291 3.98869 5.77051C3.96428 5.71191 3.9285 5.65873 3.88343 5.61403C3.79353 5.52593 3.67267 5.47658 3.54679 5.47658C3.42091 5.47658 3.30005 5.52593 3.21016 5.61403L1.14225 7.65279C1.09718 7.69749 1.0614 7.75067 1.03699 7.80926C1.01257 7.86786 1 7.93071 1 7.99418C1 8.05766 1.01257 8.12051 1.03699 8.1791C1.0614 8.2377 1.09718 8.29088 1.14225 8.33558L3.1813 10.3743C3.22495 10.4196 3.27722 10.4557 3.33503 10.4805C3.39285 10.5053 3.45504 10.5182 3.51794 10.5186C3.58579 10.5236 3.65389 10.5132 3.71718 10.4882C3.78046 10.4633 3.83729 10.4243 3.88343 10.3743C3.92943 10.3312 3.9661 10.279 3.99116 10.2211C4.01623 10.1632 4.02916 10.1008 4.02916 10.0377C4.02916 9.97466 4.01623 9.91225 3.99116 9.85436C3.9661 9.79647 3.92943 9.74433 3.88343 9.70116L2.64268 8.47983H7.51909V13.3555L6.29759 12.1342C6.25275 12.0894 6.19951 12.0538 6.14093 12.0295C6.08234 12.0053 6.01955 11.9928 5.95614 11.9928C5.89273 11.9928 5.82994 12.0053 5.77135 12.0295C5.71277 12.0538 5.65954 12.0894 5.6147 12.1342C5.56986 12.179 5.53429 12.2323 5.51002 12.2908C5.48575 12.3494 5.47327 12.4122 5.47327 12.4756C5.47327 12.539 5.48575 12.6018 5.51002 12.6604C5.53429 12.7189 5.56986 12.7722 5.6147 12.817L7.65375 14.8557C7.74549 14.9478 7.87003 14.9997 8 15C8.0629 14.9996 8.12509 14.9867 8.18291 14.9619C8.24072 14.9371 8.29299 14.901 8.33664 14.8557L10.3757 12.817C10.4208 12.7723 10.4565 12.7191 10.481 12.6605C10.5054 12.6019 10.5179 12.5391 10.5179 12.4756C10.5179 12.4121 10.5054 12.3493 10.481 12.2907C10.4565 12.2321 10.4208 12.1789 10.3757 12.1342C10.2858 12.0461 10.1649 11.9968 10.039 11.9968C9.91317 11.9968 9.79231 12.0461 9.70241 12.1342L8.48091 13.3555V8.47983H13.3573L12.1358 9.70116C12.0477 9.79104 11.9983 9.91188 11.9983 10.0377C11.9983 10.1636 12.0477 10.2844 12.1358 10.3743C12.2276 10.4664 12.3521 10.5183 12.4821 10.5186C12.6089 10.5168 12.7299 10.4649 12.8187 10.3743L14.8577 8.33558C14.9028 8.29088 14.9386 8.2377 14.963 8.1791C14.9874 8.12051 15 8.05766 15 7.99418C15 7.93071 14.9874 7.86786 14.963 7.80926C14.9386 7.75067 14.9028 7.69749 14.8577 7.65279Z" fill="black"/>
</svg>
