<svg width="20" height="20" viewBox="0 0 20 20" fill="none" xmlns="http://www.w3.org/2000/svg">
<g clip-path="url(#clip0_65_217)">
<path d="M17.77 8.56997C17.9253 8.37648 18.0031 8.13219 17.9883 7.88455C17.9735 7.63692 17.8672 7.40362 17.69 7.22997C17.6003 7.14936 17.4953 7.08761 17.3812 7.0484C17.2671 7.00918 17.1463 6.9933 17.026 7.00169C16.9056 7.01009 16.7882 7.04259 16.6807 7.09727C16.5732 7.15194 16.4777 7.22768 16.4 7.31997C15.4 8.45997 12.88 11.11 10 11.11C7.12005 11.11 4.57005 8.45997 3.60005 7.31997C3.52237 7.22768 3.42693 7.15194 3.3194 7.09727C3.21187 7.04259 3.09445 7.01009 2.97411 7.00169C2.85377 6.9933 2.73298 7.00918 2.6189 7.0484C2.50482 7.08761 2.39979 7.14936 2.31005 7.22997C2.13287 7.40362 2.02657 7.63692 2.01179 7.88455C1.997 8.13219 2.07479 8.37648 2.23005 8.56997C2.73436 9.15704 3.27545 9.71149 3.85005 10.23L2.94005 11.15C2.75379 11.3373 2.64925 11.5908 2.64925 11.855C2.64925 12.1192 2.75379 12.3726 2.94005 12.56C3.12741 12.7462 3.38086 12.8508 3.64505 12.8508C3.90923 12.8508 4.16268 12.7462 4.35005 12.56L5.45005 11.46C6.51462 12.1963 7.72549 12.6942 9.00005 12.92C8.99557 12.9464 8.99557 12.9735 9.00005 13V14C9.00005 14.2652 9.1054 14.5195 9.29294 14.7071C9.48048 14.8946 9.73483 15 10 15C10.2653 15 10.5196 14.8946 10.7072 14.7071C10.8947 14.5195 11 14.2652 11 14V13C11.0045 12.9735 11.0045 12.9464 11 12.92C12.2816 12.697 13.4995 12.1989 14.57 11.46L15.67 12.56C15.8574 12.7462 16.1109 12.8508 16.375 12.8508C16.6392 12.8508 16.8927 12.7462 17.08 12.56C17.2663 12.3726 17.3708 12.1192 17.3708 11.855C17.3708 11.5908 17.2663 11.3373 17.08 11.15L16.17 10.23C16.7378 9.71086 17.2722 9.15642 17.77 8.56997Z" fill="black"/>
</g>
<defs>
<clipPath id="clip0_65_217">
<rect width="16" height="8" fill="white" transform="translate(2 7)"/>
</clipPath>
</defs>
</svg>
