<svg width="20" height="20" viewBox="0 0 20 20" fill="none" xmlns="http://www.w3.org/2000/svg">
<path d="M16.8571 5.4417H15.3486L15.7143 3.35247C15.742 3.20149 15.739 3.04647 15.7053 2.89669C15.6717 2.7469 15.6082 2.60544 15.5185 2.48074C15.4289 2.35605 15.3151 2.25069 15.1837 2.17096C15.0524 2.09124 14.9064 2.03878 14.7543 2.01674C14.604 1.99074 14.45 1.99506 14.3014 2.02945C14.1528 2.06384 14.0125 2.12761 13.889 2.21698C13.7654 2.30635 13.6611 2.41953 13.582 2.54984C13.5029 2.68016 13.4507 2.82496 13.4286 2.97573L13.0286 5.4417H8.45714L8.85714 3.35247C8.88486 3.20149 8.88181 3.04647 8.84818 2.89669C8.81454 2.7469 8.75102 2.60544 8.6614 2.48074C8.57178 2.35605 8.45791 2.25069 8.32659 2.17096C8.19528 2.09124 8.04922 2.03878 7.89714 2.01674C7.74684 1.99074 7.59284 1.99506 7.44423 2.02945C7.29562 2.06384 7.15541 2.12761 7.03185 2.21698C6.9083 2.30635 6.80391 2.41953 6.72484 2.54984C6.64576 2.68016 6.5936 2.82496 6.57143 2.97573L6.17143 5.4417H4.28571C3.98261 5.4417 3.69192 5.56198 3.47759 5.77608C3.26327 5.99018 3.14286 6.28057 3.14286 6.58335C3.14286 6.88614 3.26327 7.17652 3.47759 7.39062C3.69192 7.60472 3.98261 7.725 4.28571 7.725H5.79429L5.02857 12.2916H3.14286C2.83975 12.2916 2.54906 12.4119 2.33474 12.626C2.12041 12.8401 2 13.1305 2 13.4333C2 13.7361 2.12041 14.0264 2.33474 14.2405C2.54906 14.4546 2.83975 14.5749 3.14286 14.5749H4.65143L4.28571 16.6756C4.25969 16.8257 4.26401 16.9795 4.29844 17.128C4.33287 17.2765 4.3967 17.4165 4.48617 17.5399C4.57563 17.6634 4.68893 17.7676 4.81938 17.8466C4.94983 17.9256 5.09479 17.9777 5.24571 17.9999H5.42857C5.70084 18.0038 5.96557 17.9105 6.17509 17.7368C6.38462 17.5631 6.52517 17.3204 6.57143 17.0523L6.97143 14.5749H11.5429L11.1429 16.6756C11.1168 16.8257 11.1212 16.9795 11.1556 17.128C11.19 17.2765 11.2538 17.4165 11.3433 17.5399C11.4328 17.6634 11.5461 17.7676 11.6765 17.8466C11.807 17.9256 11.9519 17.9777 12.1029 17.9999H12.2857C12.558 18.0038 12.8227 17.9105 13.0322 17.7368C13.2418 17.5631 13.3823 17.3204 13.4286 17.0523L13.8286 14.5749H15.7143C16.0174 14.5749 16.3081 14.4546 16.5224 14.2405C16.7367 14.0264 16.8571 13.7361 16.8571 13.4333C16.8571 13.1305 16.7367 12.8401 16.5224 12.626C16.3081 12.4119 16.0174 12.2916 15.7143 12.2916H14.2057L14.9714 7.725H16.8571C17.1602 7.725 17.4509 7.60472 17.6653 7.39062C17.8796 7.17652 18 6.88614 18 6.58335C18 6.28057 17.8796 5.99018 17.6653 5.77608C17.4509 5.56198 17.1602 5.4417 16.8571 5.4417ZM11.8857 12.2916H7.31429L8.08 7.725H12.6514L11.8857 12.2916Z" fill="black"/>
</svg>
