<svg width="20" height="20" viewBox="0 0 20 20" fill="none" xmlns="http://www.w3.org/2000/svg">
<path fill-rule="evenodd" clip-rule="evenodd" d="M12.6581 8.37939C11.9514 9.08049 10.9955 9.47272 9.99998 9.47005C9.00449 9.47272 8.04857 9.08049 7.34185 8.37939C6.63512 7.67829 6.23527 6.72553 6.22998 5.73005C6.2326 5.23759 6.33219 4.75047 6.52307 4.2965C6.71395 3.84254 6.99238 3.43061 7.34246 3.08425C7.69253 2.73788 8.10741 2.46386 8.56339 2.27784C9.01937 2.09181 9.50752 1.99742 9.99998 2.00005C10.4924 1.99742 10.9806 2.09181 11.4366 2.27784C11.8926 2.46386 12.3074 2.73788 12.6575 3.08425C13.0076 3.43061 13.286 3.84254 13.4769 4.2965C13.6678 4.75047 13.7674 5.23759 13.77 5.73005C13.7647 6.72553 13.3648 7.67829 12.6581 8.37939ZM11.1385 4.59745C10.8352 4.29795 10.4262 4.13002 9.99998 4.13005C9.57377 4.13002 9.16472 4.29795 8.86148 4.59745C8.55824 4.89694 8.38524 5.30388 8.37998 5.73005C8.38129 5.94148 8.42423 6.15058 8.50635 6.34542C8.58848 6.54025 8.70817 6.717 8.8586 6.86558C9.00903 7.01415 9.18726 7.13164 9.38309 7.21133C9.57893 7.29103 9.78855 7.33137 9.99998 7.33005C10.2114 7.33137 10.421 7.29103 10.6169 7.21133C10.8127 7.13164 10.9909 7.01415 11.1414 6.86558C11.2918 6.717 11.4115 6.54025 11.4936 6.34542C11.5757 6.15058 11.6187 5.94148 11.62 5.73005C11.6147 5.30388 11.4417 4.89694 11.1385 4.59745ZM7.46004 10.53H12.54C13.127 10.5287 13.7083 10.6435 14.2507 10.8678C14.7931 11.0921 15.2857 11.4215 15.7002 11.8369C16.1148 12.2524 16.443 12.7458 16.6661 13.2886C16.8892 13.8315 17.0027 14.4131 17 15V15.81C16.9987 16.099 16.9405 16.3848 16.8288 16.6512C16.717 16.9176 16.5538 17.1594 16.3486 17.3628C16.1434 17.5661 15.9001 17.7271 15.6327 17.8364C15.3653 17.9458 15.079 18.0014 14.79 18H5.21004C4.6334 18.0028 4.07872 17.7791 3.66539 17.377C3.25207 16.9749 3.01314 16.4265 3.00004 15.85V15C2.99741 14.4131 3.11089 13.8315 3.33397 13.2886C3.55705 12.7458 3.88531 12.2524 4.29985 11.8369C4.7144 11.4215 5.20703 11.0921 5.7494 10.8678C6.29176 10.6435 6.87313 10.5287 7.46004 10.53ZM14.8325 15.8525C14.8437 15.8412 14.85 15.826 14.85 15.81V15C14.8487 14.698 14.7879 14.3992 14.6711 14.1206C14.5543 13.8421 14.3838 13.5893 14.1693 13.3766C13.9548 13.164 13.7005 12.9957 13.421 12.8813C13.1414 12.7669 12.8421 12.7087 12.54 12.71H7.46004C7.158 12.7087 6.85866 12.7669 6.57911 12.8813C6.29956 12.9957 6.04527 13.164 5.83076 13.3766C5.61626 13.5893 5.44574 13.8421 5.32894 14.1206C5.21214 14.3992 5.15136 14.698 5.15004 15V15.81L14.79 15.87C14.806 15.87 14.8212 15.8637 14.8325 15.8525Z" fill="black"/>
</svg>
