<svg width="20" height="20" viewBox="0 0 20 20" fill="none" xmlns="http://www.w3.org/2000/svg">
<path fill-rule="evenodd" clip-rule="evenodd" d="M2 2H18C18.2652 2 18.5196 2.10536 18.7071 2.29289C18.8946 2.48043 19 2.73478 19 3V6C19 6.26522 18.8946 6.51957 18.7071 6.70711C18.5196 6.89464 18.2652 7 18 7V17C18 17.2652 17.8946 17.5196 17.7071 17.7071C17.5196 17.8946 17.2652 18 17 18H3C2.73478 18 2.48043 17.8946 2.29289 17.7071C2.10536 17.5196 2 17.2652 2 17V7C1.73478 7 1.48043 6.89464 1.29289 6.70711C1.10536 6.51957 1 6.26522 1 6V3C1 2.73478 1.10536 2.48043 1.29289 2.29289C1.48043 2.10536 1.73478 2 2 2ZM17 4H3V5H17V4ZM4 16H16V7H4V16ZM12.0001 10.0002H8.00012C7.73491 10.0002 7.48055 9.89489 7.29302 9.70735C7.10548 9.51981 7.00012 9.26546 7.00012 9.00024C7.00012 8.73503 7.10548 8.48067 7.29302 8.29314C7.48055 8.1056 7.73491 8.00024 8.00012 8.00024H12.0001C12.2653 8.00024 12.5197 8.1056 12.7072 8.29314C12.8948 8.48067 13.0001 8.73503 13.0001 9.00024C13.0001 9.26546 12.8948 9.51981 12.7072 9.70735C12.5197 9.89489 12.2653 10.0002 12.0001 10.0002Z" fill="black"/>
</svg>
