<svg width="20" height="20" viewBox="0 0 20 20" fill="none" xmlns="http://www.w3.org/2000/svg">
<path fill-rule="evenodd" clip-rule="evenodd" d="M2.61636 4.93154C2.7382 4.9813 2.86866 5.00652 3.00026 5.00576C3.13187 5.00652 3.26233 4.9813 3.38416 4.93154C3.506 4.88177 3.61681 4.80845 3.71025 4.71577C3.79858 4.61857 3.8696 4.50696 3.92025 4.38577C3.97149 4.26555 3.99866 4.13646 4.00024 4.00578C3.99866 3.87511 3.97149 3.74601 3.92025 3.62579C3.8696 3.5046 3.79858 3.39299 3.71025 3.29579C3.61729 3.20207 3.50669 3.12767 3.38483 3.07691C3.26297 3.02614 3.13227 3 3.00026 3C2.86825 3 2.73755 3.02614 2.61569 3.07691C2.49383 3.12767 2.38324 3.20207 2.29027 3.29579C2.20194 3.39299 2.13092 3.5046 2.08028 3.62579C2.0243 3.74446 1.9969 3.87461 2.00028 4.00578C1.9969 4.13696 2.0243 4.2671 2.08028 4.38577C2.13092 4.50696 2.20194 4.61857 2.29027 4.71577C2.38371 4.80845 2.49453 4.88177 2.61636 4.93154ZM6.00023 5.00607H17C17.2652 5.00607 17.5196 4.90071 17.7071 4.71318C17.8947 4.52565 18 4.2713 18 4.00609C18 3.74087 17.8947 3.48652 17.7071 3.29899C17.5196 3.11146 17.2652 3.0061 17 3.0061H6.00023C5.73501 3.0061 5.48067 3.11146 5.29313 3.29899C5.1056 3.48652 5.00024 3.74087 5.00024 4.00609C5.00024 4.2713 5.1056 4.52565 5.29313 4.71318C5.48067 4.90071 5.73501 5.00607 6.00023 5.00607ZM17 11.0034H6.00023C5.73501 11.0034 5.48067 10.898 5.29313 10.7105C5.1056 10.523 5.00024 10.2686 5.00024 10.0034C5.00024 9.73819 5.1056 9.48384 5.29313 9.29631C5.48067 9.10877 5.73501 9.00342 6.00023 9.00342H17C17.2652 9.00342 17.5196 9.10877 17.7071 9.29631C17.8947 9.48384 18 9.73819 18 10.0034C18 10.2686 17.8947 10.523 17.7071 10.7105C17.5196 10.898 17.2652 11.0034 17 11.0034ZM2.29313 10.7104C2.48067 10.898 2.73501 11.0033 3.00023 11.0033C3.1314 11.0067 3.26154 10.9793 3.38022 10.9233C3.5014 10.8727 3.61302 10.8016 3.71021 10.7133C3.80289 10.6199 3.87622 10.5091 3.92598 10.3872C3.97575 10.2654 4.00097 10.1349 4.00021 10.0033C4.00163 9.73165 3.89768 9.46999 3.71021 9.27334C3.66103 9.2281 3.60743 9.1879 3.55022 9.15335C3.49917 9.11377 3.44165 9.08332 3.38022 9.06335C3.32067 9.0329 3.25646 9.01262 3.19022 9.00335C3.02793 8.97369 2.86082 8.98465 2.70379 9.03525C2.54676 9.08585 2.40469 9.17451 2.29024 9.29334C2.10751 9.48497 2.00393 9.73857 2.00024 10.0033C2.00024 10.2685 2.1056 10.5229 2.29313 10.7104ZM17 17.0009H6.00023C5.73501 17.0009 5.48067 16.8956 5.29313 16.7081C5.1056 16.5205 5.00024 16.2662 5.00024 16.001C5.00024 15.7357 5.1056 15.4814 5.29313 15.2939C5.48067 15.1063 5.73501 15.001 6.00023 15.001H17C17.2652 15.001 17.5196 15.1063 17.7071 15.2939C17.8947 15.4814 18 15.7357 18 16.001C18 16.2662 17.8947 16.5205 17.7071 16.7081C17.5196 16.8956 17.2652 17.0009 17 17.0009ZM2.29317 16.7077C2.4807 16.8953 2.73505 17.0006 3.00026 17.0006C3.16404 16.9998 3.32511 16.9588 3.46932 16.8811C3.61353 16.8035 3.73647 16.6916 3.82732 16.5554C3.91817 16.4191 3.97415 16.2626 3.99036 16.0996C4.00656 15.9366 3.98248 15.7722 3.92025 15.6207C3.87265 15.4979 3.80129 15.3858 3.71025 15.2907C3.61729 15.1969 3.50669 15.1225 3.38483 15.0718C3.26297 15.021 3.13227 14.9949 3.00026 14.9949C2.86825 14.9949 2.73755 15.021 2.61569 15.0718C2.49383 15.1225 2.38324 15.1969 2.29027 15.2907C2.19923 15.3858 2.12787 15.4979 2.08028 15.6207C2.0243 15.7393 1.9969 15.8695 2.00028 16.0007C2.00028 16.2659 2.10563 16.5202 2.29317 16.7077Z" fill="black"/>
</svg>
