<svg width="20" height="20" viewBox="0 0 20 20" fill="none" xmlns="http://www.w3.org/2000/svg">
<path fill-rule="evenodd" clip-rule="evenodd" d="M15.0367 3C16.087 3 17.0946 3.42395 17.8389 4.17909C18.207 4.55404 18.499 4.99922 18.6982 5.48918C18.8974 5.97915 18.9999 6.50431 18.9999 7.03466C18.9999 7.56502 18.8974 8.09018 18.6982 8.58014C18.499 9.07011 18.207 9.51528 17.8389 9.89023L14.2968 13.5096C13.6682 14.1435 12.8508 14.5468 11.9729 14.656C11.095 14.7652 10.2064 14.5741 9.44661 14.1128C9.17091 13.9454 8.91743 13.7427 8.69236 13.5096C8.46349 13.2767 8.26459 13.0152 8.10041 12.7312C7.64767 11.96 7.45832 11.0578 7.56196 10.1653C7.6656 9.27291 8.05638 8.4406 8.67326 7.79842L8.82602 7.64275C8.92337 7.64399 9.01997 7.66039 9.11245 7.69139C9.35267 7.76326 9.57218 7.89346 9.75214 8.07084C9.93855 8.25123 10.0794 8.47487 10.1627 8.72271C10.1932 8.81023 10.2093 8.90227 10.2104 8.99513L10.0386 9.17026C9.84751 9.36967 9.69689 9.6055 9.59532 9.86426C9.49375 10.123 9.44322 10.3996 9.44661 10.6783C9.44403 10.8803 9.47635 11.0812 9.54209 11.2718C9.6386 11.5955 9.81248 11.8897 10.0481 12.128C10.2895 12.3688 10.5894 12.54 10.9169 12.6242C11.1009 12.6903 11.2947 12.7232 11.4898 12.7215C12.0312 12.7255 12.5525 12.5123 12.941 12.128L16.4927 8.47947C16.8615 8.08656 17.0674 7.5638 17.0674 7.02007C17.0674 6.47634 16.8615 5.95357 16.4927 5.56066C16.3028 5.36553 16.0767 5.21085 15.8275 5.10562C15.5784 5.00039 15.3112 4.94671 15.0415 4.94771C14.7684 4.94242 14.497 4.99406 14.2442 5.09946C13.9914 5.20486 13.7623 5.36181 13.5712 5.56066L12.3968 6.77683C12.2262 6.49779 12.0243 6.23986 11.7953 6.00821C11.573 5.76925 11.3191 5.56296 11.0411 5.39526L12.2345 4.17909C12.9788 3.42395 13.9864 3 15.0367 3ZM6.56334 14.2974L7.75678 13.0813C7.92279 13.3578 8.12516 13.6099 8.35828 13.8304C8.57878 14.0675 8.82921 14.2736 9.10299 14.4434L7.91909 15.6498C7.56045 16.0595 7.12358 16.3904 6.63518 16.6222C6.14678 16.8541 5.61712 16.9819 5.07857 16.9981C4.54003 17.0142 4.00392 16.9182 3.50301 16.716C3.0021 16.5138 2.54692 16.2096 2.1653 15.8221C1.78367 15.4345 1.48363 14.9717 1.28349 14.4619C1.08336 13.9522 0.987353 13.4062 1.00133 12.8573C1.01532 12.3085 1.13899 11.7683 1.36481 11.2698C1.59062 10.7713 1.91383 10.325 2.31467 9.95814L5.86636 6.34854C6.43088 5.77508 7.15201 5.38845 7.93553 5.23918C8.71905 5.08991 9.52854 5.18492 10.2582 5.51181C10.4125 5.57989 10.5624 5.65788 10.707 5.74532C11.2633 6.08217 11.7266 6.55757 12.0532 7.12689C12.139 7.27422 12.2155 7.42695 12.2823 7.58417C12.6031 8.32777 12.6963 9.15267 12.5499 9.95111C12.4034 10.7496 12.024 11.4844 11.4612 12.0597L11.3085 12.2154C11.2069 12.2089 11.107 12.1859 11.0125 12.1472C10.7721 12.0861 10.5516 11.962 10.3728 11.7873C10.19 11.596 10.0556 11.3622 9.98136 11.1062C9.95009 11.0291 9.93387 10.9464 9.93362 10.863L10.1055 10.6878C10.2993 10.492 10.4524 10.2584 10.5557 10.001C10.6591 9.74359 10.7105 9.46762 10.707 9.18952C10.7079 8.98521 10.679 8.78189 10.621 8.5863C10.5173 8.26373 10.3407 7.97048 10.1055 7.73011C9.87048 7.48871 9.57751 7.31427 9.25575 7.22418C9.06366 7.16583 8.86424 7.13634 8.6638 7.13662C8.3937 7.13067 8.12519 7.18015 7.87423 7.28211C7.62328 7.38407 7.39502 7.53642 7.20302 7.73011L3.69907 11.3786C3.41566 11.7816 3.28189 12.274 3.32162 12.7681C3.36135 13.2622 3.572 13.7258 3.916 14.0764C4.26 14.4269 4.71499 14.6416 5.19985 14.6821C5.68471 14.7226 6.16793 14.5862 6.56334 14.2974Z" fill="black"/>
</svg>
