<svg width="20" height="20" viewBox="0 0 20 20" fill="none" xmlns="http://www.w3.org/2000/svg">
<path fill-rule="evenodd" clip-rule="evenodd" d="M3 7.00002H12C12.2652 7.00002 12.5196 6.89466 12.7071 6.70712C12.8946 6.51959 13 6.26523 13 6.00001C13 5.73479 12.8946 5.48043 12.7071 5.2929C12.5196 5.10536 12.2652 5 12 5H3C2.73478 5 2.48043 5.10536 2.29289 5.2929C2.10536 5.48043 2 5.73479 2 6.00001C2 6.26523 2.10536 6.51959 2.29289 6.70712C2.48043 6.89466 2.73478 7.00002 3 7.00002ZM17 9.00024H3C2.73478 9.00024 2.48043 9.1056 2.29289 9.29314C2.10536 9.48068 2 9.73503 2 10.0003C2 10.2655 2.10536 10.5198 2.29289 10.7074C2.48043 10.8949 2.73478 11.0003 3 11.0003H17C17.2652 11.0003 17.5196 10.8949 17.7071 10.7074C17.8946 10.5198 18 10.2655 18 10.0003C18 9.73503 17.8946 9.48068 17.7071 9.29314C17.5196 9.1056 17.2652 9.00024 17 9.00024ZM3 13H9C9.26522 13 9.51957 13.1054 9.70711 13.2929C9.89464 13.4804 10 13.7348 10 14C10 14.2652 9.89464 14.5196 9.70711 14.7071C9.51957 14.8947 9.26522 15 9 15H3C2.73478 15 2.48043 14.8947 2.29289 14.7071C2.10536 14.5196 2 14.2652 2 14C2 13.7348 2.10536 13.4804 2.29289 13.2929C2.48043 13.1054 2.73478 13 3 13Z" fill="black"/>
</svg>
