<svg width="20" height="20" viewBox="0 0 20 20" fill="none" xmlns="http://www.w3.org/2000/svg">
<path fill-rule="evenodd" clip-rule="evenodd" d="M6 2.88892H17C17.2652 2.88892 17.5196 2.99595 17.7071 3.18646C17.8946 3.37697 18 3.63536 18 3.90479V13.0476C18 13.3171 17.8946 13.5755 17.7071 13.766C17.5196 13.9565 17.2652 14.0635 17 14.0635H14V16.0953C14 16.3647 13.8946 16.6231 13.7071 16.8136C13.5196 17.0041 13.2652 17.1111 13 17.1111H3C2.73478 17.1111 2.48043 17.0041 2.29289 16.8136C2.10536 16.6231 2 16.3647 2 16.0953V6.95241C2 6.68298 2.10536 6.42459 2.29289 6.23408C2.48043 6.04356 2.73478 5.93654 3 5.93654H5V3.90479C5 3.63536 5.10536 3.37697 5.29289 3.18646C5.48043 2.99595 5.73478 2.88892 6 2.88892ZM16 4.92066H7V11.8184L9.15 9.64447C9.19489 9.59588 9.24911 9.55715 9.30931 9.53068C9.3695 9.50421 9.4344 9.49055 9.5 9.49055C9.5656 9.49055 9.6305 9.50421 9.69069 9.53068C9.75089 9.55715 9.80511 9.59588 9.85 9.64447L11.25 11.0159L13.65 8.6286C13.6949 8.58001 13.7491 8.54128 13.8093 8.51481C13.8695 8.48833 13.9344 8.47468 14 8.47468C14.0656 8.47468 14.1305 8.48833 14.1907 8.51481C14.2509 8.54128 14.3051 8.58001 14.35 8.6286L16 10.2946V4.92066ZM4 7.96828V15.0794H12V14.0635H6C5.73478 14.0635 5.48043 13.9565 5.29289 13.766C5.10536 13.5755 5 13.3171 5 13.0476V7.96828H4ZM11 7.46033C11 8.30191 10.3284 8.98414 9.5 8.98414C8.67157 8.98414 8 8.30191 8 7.46033C8 6.61876 8.67157 5.93652 9.5 5.93652C10.3284 5.93652 11 6.61876 11 7.46033Z" fill="black"/>
</svg>
