<svg width="20" height="20" viewBox="0 0 20 20" fill="none" xmlns="http://www.w3.org/2000/svg">
<path fill-rule="evenodd" clip-rule="evenodd" d="M16.4001 4V12.6701H13.0001C12.8004 12.6541 12.5998 12.6541 12.4001 12.6701C12.1969 12.6978 11.9962 12.7426 11.8001 12.8041C11.5974 12.8661 11.4 12.9454 11.2101 13.0412C10.7565 13.2607 10.3463 13.5648 10.0001 13.9381C9.65947 13.5826 9.25983 13.2928 8.8201 13.0825C8.62944 12.9884 8.43222 12.9091 8.2301 12.8454C8.03399 12.7839 7.83331 12.739 7.6301 12.7113C7.4304 12.6953 7.22979 12.6953 7.0301 12.7113H3.6001V4H7.0001C7.62193 4.00198 8.23598 4.14266 8.8001 4.41237C9.24526 4.6236 9.65132 4.91315 10.0001 5.26804C10.3489 4.91315 10.7549 4.6236 11.2001 4.41237C11.7639 4.14172 12.3782 4.001 13.0001 4H16.4001ZM12.4 8.4H10.6V6.6C10.6 6.44087 10.5368 6.28826 10.4243 6.17574C10.3117 6.06321 10.1591 6 10 6C9.84087 6 9.68826 6.06321 9.57574 6.17574C9.46321 6.28826 9.4 6.44087 9.4 6.6V8.4H7.6C7.44087 8.4 7.28826 8.46321 7.17574 8.57574C7.06321 8.68826 7 8.84087 7 9C7 9.15913 7.06321 9.31174 7.17574 9.42426C7.28826 9.53679 7.44087 9.6 7.6 9.6H9.4V11.4C9.4 11.5591 9.46321 11.7117 9.57574 11.8243C9.68826 11.9368 9.84087 12 10 12C10.1591 12 10.3117 11.9368 10.4243 11.8243C10.5368 11.7117 10.6 11.5591 10.6 11.4V9.6H12.4C12.5591 9.6 12.7117 9.53679 12.8243 9.42426C12.9368 9.31174 13 9.15913 13 9C13 8.84087 12.9368 8.68826 12.8243 8.57574C12.7117 8.46321 12.5591 8.4 12.4 8.4ZM17.3094 4.96966C17.3823 4.88874 17.483 4.84044 17.59 4.83509C17.6434 4.83371 17.6965 4.84336 17.7461 4.86347C17.7958 4.88358 17.8411 4.91373 17.8793 4.95216C17.9175 4.99059 17.9479 5.03652 17.9686 5.08724C17.9893 5.13795 18 5.19243 18 5.24746V14.3093H13.4C12.9233 14.3118 12.4503 14.3954 12 14.5567C11.4189 14.7785 10.8929 15.1306 10.46 15.5877C10.4784 15.5877 10.4966 15.5914 10.5136 15.5987C10.5306 15.6059 10.546 15.6165 10.559 15.6299C10.572 15.6433 10.5823 15.6593 10.5893 15.6768C10.5964 15.6943 10.6 15.713 10.6 15.732V15.8557C10.6 15.894 10.5852 15.9307 10.559 15.9578C10.5327 15.9848 10.4971 16 10.46 16H9.54C9.50287 16 9.46726 15.9848 9.44101 15.9578C9.41475 15.9307 9.4 15.894 9.4 15.8557V15.732C9.4 15.713 9.40362 15.6943 9.41066 15.6768C9.41769 15.6593 9.42801 15.6433 9.44101 15.6299C9.45401 15.6165 9.46944 15.6059 9.48642 15.5987C9.50341 15.5914 9.52162 15.5877 9.54 15.5877C9.10713 15.1306 8.58111 14.7785 8 14.5567C7.54973 14.3954 7.0767 14.3118 6.6 14.3093H2V5.24746C1.99998 5.19243 2.01065 5.13795 2.03138 5.08724C2.0521 5.03652 2.08246 4.99059 2.12067 4.95216C2.15888 4.91373 2.20416 4.88358 2.25385 4.86347C2.30354 4.84336 2.35664 4.83371 2.41 4.83509C2.51353 4.84027 2.61131 4.88569 2.68367 4.9622C2.75603 5.03871 2.79759 5.14063 2.8 5.24746V13.4949H7C7.33697 13.4941 7.67277 13.5357 8 13.6186C8.75872 13.8078 9.4513 14.2112 10 14.7835C10.5511 14.2187 11.2435 13.8226 12 13.6392C12.3272 13.5563 12.663 13.5147 13 13.5155H17.2V5.26808C17.1973 5.15769 17.2365 5.05058 17.3094 4.96966Z" fill="black"/>
</svg>
