<svg width="20" height="20" viewBox="0 0 20 20" fill="none" xmlns="http://www.w3.org/2000/svg">
<path fill-rule="evenodd" clip-rule="evenodd" d="M16.6309 14.13L16.8414 14.46C16.9384 14.611 16.993 14.7852 16.9994 14.9645C17.0058 15.1437 16.9637 15.3214 16.8777 15.4789C16.7916 15.6363 16.6647 15.7678 16.5102 15.8595C16.3557 15.9512 16.1794 15.9997 15.9997 16H3.9759C3.79948 15.9905 3.62871 15.9347 3.4809 15.8381C3.33308 15.7415 3.21349 15.6076 3.13424 15.45C3.0463 15.298 3 15.1255 3 14.95C3 14.7745 3.0463 14.602 3.13424 14.45L3.34466 14.14C3.83096 13.353 4.15034 12.4749 4.28304 11.5598C4.41575 10.6448 4.35896 9.71228 4.11618 8.82C4.02451 8.42651 3.97746 8.02398 3.9759 7.62C3.97794 6.81416 4.15868 6.01875 4.50515 5.29087C4.85163 4.56298 5.35525 3.92066 5.97987 3.41C6.84345 2.70441 7.88205 2.24488 8.98581 2.08V2C8.98581 1.73478 9.09138 1.48043 9.27929 1.29289C9.4672 1.10536 9.72205 1 9.98779 1C10.2535 1 10.5084 1.10536 10.6963 1.29289C10.8842 1.48043 10.9898 1.73478 10.9898 2V2.09L11.2102 2.14C12.3065 2.33889 13.323 2.84657 14.1397 3.60316C14.9563 4.35974 15.5391 5.33365 15.8193 6.41C16.0352 7.25989 16.0352 8.15011 15.8193 9C15.5828 9.86367 15.5328 10.7676 15.6727 11.652C15.8127 12.5364 16.1393 13.3811 16.6309 14.13ZM6.07005 8.36C6.54168 10.2338 6.40484 12.2088 5.67927 14L14.2763 14.05C13.5083 12.3043 13.3668 10.3477 13.8755 8.51C14.0108 7.97844 14.0108 7.42156 13.8755 6.89C13.6878 6.19306 13.3056 5.56365 12.7735 5.07503C12.2413 4.58642 11.5811 4.25869 10.8695 4.13C10.2443 4.00213 9.59855 4.01382 8.9784 4.16423C8.35826 4.31464 7.77912 4.60004 7.28244 5C6.88629 5.31483 6.56429 5.71268 6.3392 6.16542C6.11411 6.61816 5.99144 7.11473 5.97987 7.62C5.9796 7.86941 6.00988 8.11792 6.07005 8.36ZM11.4049 18.4142C11.029 18.7893 10.5193 19 9.98785 19C9.45637 19 8.94665 18.7893 8.57083 18.4142C8.19502 18.0391 7.98389 17.5304 7.98389 17H11.9918C11.9918 17.5304 11.7807 18.0391 11.4049 18.4142Z" fill="black"/>
</svg>
