<svg width="20" height="20" viewBox="0 0 20 20" fill="none" xmlns="http://www.w3.org/2000/svg">
<path d="M14.14 9.00006H8V6.06006C8 5.52963 8.21071 5.02092 8.58579 4.64585C8.96086 4.27077 9.46957 4.06006 10 4.06006C10.5304 4.06006 11.0391 4.27077 11.4142 4.64585C11.7893 5.02092 12 5.52963 12 6.06006C12 6.32527 12.1054 6.57963 12.2929 6.76717C12.4804 6.9547 12.7348 7.06006 13 7.06006C13.2652 7.06006 13.5196 6.9547 13.7071 6.76717C13.8946 6.57963 14 6.32527 14 6.06006C14 4.99919 13.5786 3.98178 12.8284 3.23163C12.0783 2.48149 11.0609 2.06006 10 2.06006C8.93913 2.06006 7.92172 2.48149 7.17157 3.23163C6.42143 3.98178 6 4.99919 6 6.06006V9.00006H5.86C5.62749 8.98793 5.39487 9.0218 5.17548 9.09972C4.95608 9.17764 4.7542 9.29808 4.58142 9.45414C4.40864 9.61019 4.26835 9.79881 4.16858 10.0092C4.06881 10.2195 4.01152 10.4475 4 10.6801V17.3201C4.01152 17.5526 4.06881 17.7806 4.16858 17.9909C4.26835 18.2013 4.40864 18.3899 4.58142 18.546C4.7542 18.702 4.95608 18.8225 5.17548 18.9004C5.39487 18.9783 5.62749 19.0122 5.86 19.0001H14.14C14.3725 19.0122 14.6051 18.9783 14.8245 18.9004C15.0439 18.8225 15.2458 18.702 15.4186 18.546C15.5914 18.3899 15.7316 18.2013 15.8314 17.9909C15.9312 17.7806 15.9885 17.5526 16 17.3201V10.6801C15.9885 10.4475 15.9312 10.2195 15.8314 10.0092C15.7316 9.79881 15.5914 9.61019 15.4186 9.45414C15.2458 9.29808 15.0439 9.17764 14.8245 9.09972C14.6051 9.0218 14.3725 8.98793 14.14 9.00006ZM14 17.0001H6V11.0001H14V17.0001Z" fill="black"/>
</svg>
