<svg width="20" height="20" viewBox="0 0 20 20" fill="none" xmlns="http://www.w3.org/2000/svg">
<path fill-rule="evenodd" clip-rule="evenodd" d="M4 9.35C4.46723 9.12178 4.98001 9.00213 5.5 9C6.42826 9 7.3185 9.36875 7.97487 10.0251C8.63125 10.6815 9 11.5717 9 12.5V13.5C9 14.4283 8.63125 15.3185 7.97487 15.9749C7.3185 16.6313 6.42826 17 5.5 17C4.57174 17 3.6815 16.6313 3.02513 15.9749C2.36875 15.3185 2 14.4283 2 13.5V8C2 6.67392 2.52678 5.40215 3.46447 4.46447C4.40215 3.52678 5.67392 3 7 3C7.26522 3 7.51957 3.10536 7.70711 3.29289C7.89464 3.48043 8 3.73478 8 4C8 4.26522 7.89464 4.51957 7.70711 4.70711C7.51957 4.89464 7.26522 5 7 5C6.20435 5 5.44129 5.31607 4.87868 5.87868C4.31607 6.44129 4 7.20435 4 8V9.35ZM6.56066 14.5607C6.84196 14.2794 7 13.8978 7 13.5V12.5C7 12.1022 6.84196 11.7206 6.56066 11.4393C6.27936 11.158 5.89782 11 5.5 11C5.10217 11 4.72064 11.158 4.43934 11.4393C4.15804 11.7206 4 12.1022 4 12.5V13.5C4 13.8978 4.15804 14.2794 4.43934 14.5607C4.72064 14.842 5.10217 15 5.5 15C5.89782 15 6.27936 14.842 6.56066 14.5607ZM13 9.35C13.4672 9.12178 13.98 9.00213 14.5 9C15.4283 9 16.3185 9.36875 16.9749 10.0251C17.6313 10.6815 18 11.5717 18 12.5V13.5C18 14.4283 17.6313 15.3185 16.9749 15.9749C16.3185 16.6313 15.4283 17 14.5 17C13.5717 17 12.6815 16.6313 12.0251 15.9749C11.3687 15.3185 11 14.4283 11 13.5V8C11 6.67392 11.5268 5.40215 12.4645 4.46447C13.4021 3.52678 14.6739 3 16 3C16.2652 3 16.5196 3.10536 16.7071 3.29289C16.8946 3.48043 17 3.73478 17 4C17 4.26522 16.8946 4.51957 16.7071 4.70711C16.5196 4.89464 16.2652 5 16 5C15.2044 5 14.4413 5.31607 13.8787 5.87868C13.3161 6.44129 13 7.20435 13 8V9.35ZM15.5607 14.5607C15.842 14.2794 16 13.8978 16 13.5V12.5C16 12.1022 15.842 11.7206 15.5607 11.4393C15.2794 11.158 14.8978 11 14.5 11C14.1022 11 13.7206 11.158 13.4393 11.4393C13.158 11.7206 13 12.1022 13 12.5V13.5C13 13.8978 13.158 14.2794 13.4393 14.5607C13.7206 14.842 14.1022 15 14.5 15C14.8978 15 15.2794 14.842 15.5607 14.5607Z" fill="black"/>
</svg>
