<svg width="20" height="20" viewBox="0 0 20 20" fill="none" xmlns="http://www.w3.org/2000/svg">
<path d="M15.7564 12.9944L14.9578 4.79902C14.9093 4.30425 14.6829 3.84577 14.3226 3.51312C13.9624 3.18047 13.4943 2.99753 13.0097 3.00003H6.99028C6.50568 2.99753 6.03756 3.18047 5.67735 3.51312C5.31714 3.84577 5.0907 4.30425 5.04225 4.79902L4.24355 12.9944C3.59774 13.0488 2.99941 13.3641 2.5802 13.8711C2.16098 14.3781 1.95522 15.0352 2.00818 15.6979C2.06114 16.3606 2.36847 16.9745 2.86258 17.4047C3.35668 17.8348 3.99708 18.0459 4.6429 17.9916H15.3571C16.0029 18.0459 16.6433 17.8348 17.1374 17.4047C17.6315 16.9745 17.9389 16.3606 17.9918 15.6979C18.0448 15.0352 17.839 14.3781 17.4198 13.8711C17.0006 13.3641 16.4023 13.0488 15.7564 12.9944ZM6.99028 4.9989H13.0097L13.7987 12.9944C9.71532 12.9944 8.44929 12.9944 6.21107 12.9944L6.99028 4.9989ZM15.3571 15.9927H4.6429C4.51374 15.9927 4.38986 15.9401 4.29853 15.8464C4.2072 15.7527 4.15589 15.6255 4.15589 15.493C4.15589 15.3605 4.2072 15.2334 4.29853 15.1397C4.38986 15.0459 4.51374 14.9933 4.6429 14.9933H15.3571C15.4863 14.9933 15.6101 15.0459 15.7015 15.1397C15.7928 15.2334 15.8441 15.3605 15.8441 15.493C15.8441 15.6255 15.7928 15.7527 15.7015 15.8464C15.6101 15.9401 15.4863 15.9927 15.3571 15.9927Z" fill="black"/>
</svg>
