<svg width="20" height="20" viewBox="0 0 20 20" fill="none" xmlns="http://www.w3.org/2000/svg">
<path d="M17.7026 16.3273L13.6943 12.328C14.5408 11.2284 15.0083 9.88518 15.0271 8.49875C15.0271 7.21342 14.645 5.95696 13.9293 4.88824C13.2136 3.81953 12.1963 2.98657 11.0061 2.49469C9.81596 2.00282 8.5063 1.87412 7.2428 2.12487C5.9793 2.37563 4.8187 2.99458 3.90777 3.90344C2.99684 4.81231 2.37648 5.97028 2.12516 7.23091C1.87383 8.49155 2.00282 9.79823 2.49582 10.9857C2.98881 12.1732 3.82366 13.1882 4.89481 13.9023C5.96595 14.6164 7.22528 14.9975 8.51353 14.9975C9.87475 14.9977 11.201 14.5672 12.3014 13.7677L16.3097 17.767C16.5108 17.9349 16.7698 18.0174 17.0312 17.9969C17.1631 17.9977 17.2938 17.9725 17.4159 17.9227C17.538 17.873 17.6491 17.7997 17.7427 17.707C17.915 17.516 18.007 17.266 17.9996 17.0091C17.9921 16.7522 17.8858 16.508 17.7026 16.3273ZM8.51353 12.9979C7.62166 12.9979 6.74982 12.734 6.00826 12.2396C5.2667 11.7453 4.68872 11.0426 4.34742 10.2205C4.00612 9.39839 3.91682 8.49376 4.09081 7.62102C4.26481 6.74827 4.69428 5.9466 5.32493 5.31739C5.95557 4.68817 6.75906 4.25967 7.6338 4.08607C8.50853 3.91247 9.41521 4.00157 10.2392 4.3421C11.0632 4.68262 11.7674 5.25929 12.2629 5.99917C12.7584 6.73905 13.0229 7.60891 13.0229 8.49875C13.0202 9.69119 12.5443 10.834 11.6992 11.6772C10.8541 12.5204 9.70867 12.9953 8.51353 12.9979Z" fill="black"/>
</svg>
