<svg width="20" height="20" viewBox="0 0 20 20" fill="none" xmlns="http://www.w3.org/2000/svg">
<path fill-rule="evenodd" clip-rule="evenodd" d="M16 2.94117C16 3.19078 15.8947 3.43017 15.7071 3.60668C15.5196 3.78318 15.2652 3.88234 15 3.88234H8.00002C7.53574 3.88234 7.08063 4.00402 6.68569 4.23375C6.29075 4.46347 5.97158 4.79217 5.76395 5.183C5.55632 5.57384 5.46843 6.01137 5.51012 6.44657C5.55182 6.88177 5.72145 7.29744 6.00002 7.64702H3.76002C3.58646 7.19432 3.49846 6.71652 3.50002 6.23526C3.50266 5.11277 3.97762 4.03695 4.82096 3.24323C5.6643 2.4495 6.80736 2.00249 8.00002 2H15C15.2652 2 15.5196 2.09916 15.7071 2.27566C15.8947 2.45217 16 2.69156 16 2.94117ZM17 13.2942C17 14.5423 16.4732 15.7392 15.5355 16.6217C14.5979 17.5043 13.3261 18.0001 12 18.0001H5C4.73478 18.0001 4.48043 17.9009 4.29289 17.7244C4.10536 17.5479 4 17.3085 4 17.0589C4 16.8093 4.10536 16.5699 4.29289 16.3934C4.48043 16.2169 4.73478 16.1177 5 16.1177H12C12.5786 16.1166 13.1445 15.9581 13.6296 15.6611C14.1146 15.3642 14.4981 14.9416 14.7338 14.4443C14.9695 13.9469 15.0473 13.3961 14.9579 12.858C14.8685 12.32 14.6157 11.8178 14.23 11.4119H16.59C16.8598 12.007 16.9993 12.6472 17 13.2942ZM17.7071 10.1948C17.8946 10.0183 18 9.77892 18 9.5293C18 9.27969 17.8946 9.0403 17.7071 8.8638C17.5196 8.68729 17.2652 8.58813 17 8.58813H3C2.73478 8.58813 2.48043 8.68729 2.29289 8.8638C2.10536 9.0403 2 9.27969 2 9.5293C2 9.77892 2.10536 10.0183 2.29289 10.1948C2.48043 10.3713 2.73478 10.4705 3 10.4705H17C17.2652 10.4705 17.5196 10.3713 17.7071 10.1948Z" fill="black"/>
</svg>
