<svg width="20" height="20" viewBox="0 0 20 20" fill="none" xmlns="http://www.w3.org/2000/svg">
<path fill-rule="evenodd" clip-rule="evenodd" d="M9.99162 5C13.5416 5 16.5716 8 17.7516 9.36C17.9013 9.53969 17.9832 9.76615 17.9832 10C17.9832 10.2339 17.9013 10.4603 17.7516 10.64C16.5716 12 13.5416 15 9.99162 15C6.44162 15 3.41162 12 2.23163 10.64C2.08196 10.4603 2 10.2339 2 10C2 9.76615 2.08196 9.53969 2.23163 9.36C3.41162 8 6.44162 5 9.99162 5ZM9.01913 12.8939C8.77726 12.783 8.54552 12.6419 8.32487 12.4944C7.83152 12.1648 7.447 11.6963 7.21994 11.1481C6.99288 10.5999 6.93347 9.99671 7.04922 9.41477C7.16498 8.83282 7.4507 8.29827 7.87026 7.87872C8.28982 7.45916 8.82436 7.17344 9.40631 7.05768C9.42412 7.04875 9.44201 7.04033 9.45998 7.03241C7.37618 7.28302 5.43189 8.93052 4.37162 10C5.35672 10.9937 7.10492 12.4863 9.01913 12.8939ZM11.018 12.8821C11.4272 12.7002 11.8048 12.4295 12.1129 12.1214C12.6755 11.5587 12.9916 10.7957 12.9916 10C12.9916 9.40669 12.8156 8.82667 12.486 8.33333C12.1563 7.83998 11.6878 7.45546 11.1396 7.2284C10.989 7.16601 10.8321 7.10404 10.6723 7.05274C12.6994 7.36139 14.5767 8.95606 15.6116 10C14.6358 10.9843 12.9111 12.4583 11.018 12.8821ZM8.57736 11.4143C8.95244 11.7893 9.46115 12 9.99158 12C10.522 12 11.0307 11.7893 11.4058 11.4143C11.7809 11.0392 11.9916 10.5305 11.9916 10C11.9916 9.4696 11.7809 8.9609 11.4058 8.58582C11.0307 8.21075 10.522 8.00004 9.99158 8.00004C9.79416 8.00238 9.59838 8.03613 9.41158 8.10004C9.55987 8.16596 9.68989 8.26698 9.79041 8.39439C9.89093 8.52179 9.95894 8.67174 9.98855 8.8313C10.0182 8.99086 10.0085 9.15523 9.96041 9.31022C9.91231 9.46521 9.82721 9.60616 9.71246 9.72092C9.5977 9.83567 9.45675 9.92077 9.30176 9.96887C9.14677 10.017 8.9824 10.0266 8.82284 9.99701C8.66328 9.96739 8.51333 9.89939 8.38593 9.79887C8.25853 9.69835 8.1575 9.56833 8.09158 9.42004C8.02767 9.60684 7.99392 9.80262 7.99158 10C7.99158 10.5305 8.20229 11.0392 8.57736 11.4143Z" fill="black"/>
</svg>
