<svg width="20" height="20" viewBox="0 0 20 20" fill="none" xmlns="http://www.w3.org/2000/svg">
<path fill-rule="evenodd" clip-rule="evenodd" d="M8.20628 18H11.7848C11.9023 18 12.0186 17.977 12.1272 17.9323C12.2357 17.8877 12.3343 17.8222 12.4174 17.7397C12.5005 17.6571 12.5664 17.5591 12.6113 17.4513C12.6563 17.3434 12.6794 17.2278 12.6794 17.1111V16.1333C13.1393 15.9348 13.5746 15.6843 13.9766 15.3867L14.8713 15.8933C15.0785 16.007 15.3214 16.0388 15.5512 15.9822C15.7786 15.9188 15.9716 15.7686 16.088 15.5644L17.8772 12.4889C17.9368 12.388 17.9756 12.2764 17.9917 12.1605C18.0077 12.0446 18.0005 11.9267 17.9706 11.8136C17.9407 11.7004 17.8886 11.5943 17.8173 11.5012C17.746 11.4081 17.6569 11.3299 17.5552 11.2711L16.6605 10.7733C16.6888 10.5254 16.7037 10.2762 16.7053 10.0267C16.7037 9.77716 16.6888 9.52792 16.6605 9.28L17.5552 8.78222C17.6569 8.72341 17.746 8.64522 17.8173 8.55213C17.8886 8.45905 17.9407 8.35289 17.9706 8.23976C18.0005 8.12663 18.0077 8.00874 17.9917 7.89285C17.9756 7.77697 17.9368 7.66537 17.8772 7.56444L16.088 4.48889C15.97 4.28557 15.7758 4.13688 15.5479 4.07527C15.3199 4.01365 15.0767 4.04411 14.8713 4.16L13.9766 4.66667C13.5815 4.36094 13.1522 4.10145 12.6973 3.89333V2.88889C12.6973 2.65314 12.6031 2.42705 12.4353 2.26035C12.2675 2.09365 12.04 2 11.8027 2H8.22417C7.9869 2 7.75934 2.09365 7.59157 2.26035C7.42379 2.42705 7.32954 2.65314 7.32954 2.88889V3.89333C6.8686 4.08971 6.43308 4.3404 6.03232 4.64L5.13769 4.13333C5.03581 4.07481 4.92332 4.03684 4.80664 4.02159C4.68997 4.00634 4.57142 4.0141 4.45777 4.04444C4.22958 4.11081 4.03481 4.25991 3.91205 4.46222L2.12278 7.53778C2.06363 7.63923 2.02526 7.75131 2.00989 7.86756C1.99452 7.9838 2.00245 8.10192 2.03321 8.21511C2.06398 8.32831 2.11698 8.43433 2.18916 8.52708C2.26135 8.61984 2.35128 8.69748 2.4538 8.75556L3.33054 9.25333C3.29782 9.50085 3.28287 9.75037 3.2858 10C3.2888 10.2501 3.30972 10.4996 3.34843 10.7467L2.4538 11.2444C2.25086 11.3586 2.10082 11.547 2.03564 11.7695C1.97047 11.992 1.99532 12.231 2.10489 12.4356L3.89415 15.5111C4.01692 15.7134 4.21169 15.8625 4.43988 15.9289C4.66969 15.9855 4.91253 15.9537 5.1198 15.84L6.01443 15.3333C6.41379 15.6422 6.84938 15.9019 7.31164 16.1067V17.1111C7.31164 17.3469 7.4059 17.573 7.57368 17.7397C7.74145 17.9063 7.969 18 8.20628 18ZM10.8902 16.2222H9.10091L9.10985 15.5378C9.10971 15.3503 9.04994 15.1677 8.93907 15.0161C8.82821 14.8644 8.67192 14.7514 8.49256 14.6933C7.82806 14.4867 7.21728 14.1378 6.7033 13.6711C6.56355 13.5443 6.38694 13.4648 6.19886 13.4441C6.01078 13.4233 5.82092 13.4623 5.65658 13.5556L5.0035 13.9289L4.10887 12.3822L4.73511 12.0267C4.90006 11.9327 5.03061 11.7891 5.10783 11.6164C5.18504 11.4438 5.2049 11.2513 5.16453 11.0667C5.02138 10.3926 5.02138 9.69628 5.16453 9.02222C5.2049 8.83763 5.18504 8.64506 5.10783 8.47245C5.03061 8.29983 4.90006 8.15614 4.73511 8.06222L4.10887 7.70667L5.0035 6.16L5.63868 6.53333C5.80303 6.62654 5.99289 6.66557 6.18097 6.6448C6.36905 6.62404 6.54566 6.54456 6.6854 6.41778C7.19939 5.9511 7.81017 5.60216 8.47466 5.39556C8.66151 5.33528 8.82319 5.21558 8.93475 5.05493C9.04632 4.89428 9.10156 4.70161 9.09196 4.50667V3.77778H10.8812V4.50667C10.8716 4.70161 10.9269 4.89428 11.0384 5.05493C11.15 5.21558 11.3117 5.33528 11.4985 5.39556C12.1621 5.60425 12.7724 5.95295 13.2878 6.41778C13.4275 6.54456 13.6041 6.62404 13.7922 6.6448C13.9803 6.66557 14.1702 6.62654 14.3345 6.53333L14.9697 6.16L15.8643 7.70667L15.2291 8.06222C15.0658 8.15743 14.9371 8.30168 14.8615 8.47419C14.786 8.6467 14.7675 8.83859 14.8087 9.02222C14.9518 9.69628 14.9518 10.3926 14.8087 11.0667C14.7675 11.2503 14.786 11.4422 14.8615 11.6147C14.9371 11.7872 15.0658 11.9315 15.2291 12.0267L15.8643 12.3822L14.9697 13.9289L14.3345 13.5556C14.1756 13.4584 13.9902 13.4131 13.8041 13.4258C13.6181 13.4386 13.4407 13.5088 13.2967 13.6267C12.7814 14.0915 12.171 14.4402 11.5075 14.6489C11.3281 14.707 11.1718 14.82 11.0609 14.9716C10.9501 15.1233 10.8903 15.3059 10.8902 15.4933V16.2222ZM8.00727 12.9565C8.59576 13.3472 9.28763 13.5557 9.9954 13.5557C10.9445 13.5557 11.8547 13.1811 12.5258 12.5143C13.1969 11.8475 13.5739 10.9431 13.5739 10.0001C13.5739 9.29692 13.364 8.60948 12.9708 8.02478C12.5776 7.44007 12.0187 6.98434 11.3648 6.71523C10.7109 6.44612 9.99143 6.37571 9.29726 6.5129C8.6031 6.65009 7.96546 6.98873 7.465 7.48598C6.96453 7.98323 6.62371 8.61677 6.48563 9.30648C6.34755 9.99619 6.41842 10.7111 6.68927 11.3608C6.96012 12.0105 7.41879 12.5658 8.00727 12.9565ZM9.00134 8.52197C9.29558 8.32662 9.64151 8.22236 9.9954 8.22236C10.4699 8.22236 10.925 8.40966 11.2606 8.74306C11.5961 9.07646 11.7847 9.52864 11.7847 10.0001C11.7847 10.3517 11.6797 10.6955 11.4831 10.9878C11.2865 11.2802 11.0071 11.508 10.6801 11.6426C10.3532 11.7771 9.99341 11.8124 9.64633 11.7438C9.29925 11.6752 8.98043 11.5058 8.7302 11.2572C8.47996 11.0086 8.30955 10.6918 8.24051 10.347C8.17147 10.0021 8.20691 9.64466 8.34233 9.31981C8.47776 8.99496 8.70709 8.71731 9.00134 8.52197Z" fill="black"/>
</svg>
