<svg width="20" height="20" viewBox="0 0 20 20" fill="none" xmlns="http://www.w3.org/2000/svg">
<path fill-rule="evenodd" clip-rule="evenodd" d="M11.21 2.29002L15.71 6.79001C15.8027 6.88345 15.876 6.99427 15.9258 7.1161C15.9755 7.23794 16.0007 7.3684 16 7.50001V17C16 17.2652 15.8946 17.5196 15.7071 17.7071C15.5196 17.8946 15.2652 18 15 18H5C4.73478 18 4.48043 17.8946 4.29289 17.7071C4.10536 17.5196 4 17.2652 4 17V3.00002C4 2.7348 4.10536 2.48045 4.29289 2.29291C4.48043 2.10537 4.73478 2.00002 5 2.00002H10.5C10.6316 1.99926 10.7621 2.02448 10.8839 2.07425C11.0057 2.12401 11.1166 2.19734 11.21 2.29002ZM6 16H14V8.00001H11C10.7348 8.00001 10.4804 7.89465 10.2929 7.70712C10.1053 7.51958 9.99999 7.26523 9.99999 7.00001V4.00001H6V16ZM7.63988 11.0001L9.75987 8.91014C9.85725 8.8223 9.98373 8.77368 10.1149 8.77368C10.246 8.77368 10.3725 8.8223 10.4699 8.91014L12.5899 11.0001C12.6737 11.0667 12.734 11.1585 12.7618 11.2619C12.7896 11.3654 12.7834 11.475 12.7442 11.5746C12.705 11.6743 12.6349 11.7588 12.5441 11.8156C12.4533 11.8724 12.3466 11.8985 12.2399 11.8901C12.1047 11.8898 11.9753 11.8359 11.8799 11.7401L10.6199 10.4701V14.4701C10.6199 14.6027 10.5672 14.7299 10.4734 14.8237C10.3797 14.9175 10.2525 14.9701 10.1199 14.9701C9.98726 14.9701 9.86009 14.9175 9.76632 14.8237C9.67255 14.7299 9.61987 14.6027 9.61987 14.4701V10.4701L8.34988 11.7001C8.30339 11.747 8.24809 11.7842 8.18716 11.8096C8.12623 11.835 8.06088 11.848 7.99488 11.848C7.92887 11.848 7.86352 11.835 7.80259 11.8096C7.74166 11.7842 7.68636 11.747 7.63988 11.7001C7.54826 11.6067 7.49695 11.481 7.49695 11.3501C7.49695 11.2193 7.54826 11.0936 7.63988 11.0001Z" fill="black"/>
</svg>
