<svg width="20" height="20" viewBox="0 0 20 20" fill="none" xmlns="http://www.w3.org/2000/svg">
<path fill-rule="evenodd" clip-rule="evenodd" d="M4 3H3C2.73478 3 2.48043 2.89464 2.29289 2.70711C2.10536 2.51957 2 2.26522 2 2C2 1.73478 2.10536 1.48043 2.29289 1.29289C2.48043 1.10536 2.73478 1 3 1H7C7.26522 1 7.51957 1.10536 7.70711 1.29289C7.89464 1.48043 8 1.73478 8 2C8 2.26522 7.89464 2.51957 7.70711 2.70711C7.51957 2.89464 7.26522 3 7 3H6V9C6 10.0609 6.42143 11.0783 7.17157 11.8284C7.92172 12.5786 8.93913 13 10 13C11.0609 13 12.0783 12.5786 12.8284 11.8284C13.5786 11.0783 14 10.0609 14 9V3H13C12.7348 3 12.4804 2.89464 12.2929 2.70711C12.1054 2.51957 12 2.26522 12 2C12 1.73478 12.1054 1.48043 12.2929 1.29289C12.4804 1.10536 12.7348 1 13 1H17C17.2652 1 17.5196 1.10536 17.7071 1.29289C17.8946 1.48043 18 1.73478 18 2C18 2.26522 17.8946 2.51957 17.7071 2.70711C17.5196 2.89464 17.2652 3 17 3H16V9C16 10.5913 15.3679 12.1174 14.2426 13.2426C13.1174 14.3679 11.5913 15 10 15C8.4087 15 6.88258 14.3679 5.75736 13.2426C4.63214 12.1174 4 10.5913 4 9V3ZM2.29289 17.2929C2.48043 17.1054 2.73478 17 3 17H17C17.2652 17 17.5196 17.1054 17.7071 17.2929C17.8946 17.4804 18 17.7348 18 18C18 18.2652 17.8946 18.5196 17.7071 18.7071C17.5196 18.8946 17.2652 19 17 19H3C2.73478 19 2.48043 18.8946 2.29289 18.7071C2.10536 18.5196 2 18.2652 2 18C2 17.7348 2.10536 17.4804 2.29289 17.2929Z" fill="black"/>
</svg>
