<svg width="20" height="20" viewBox="0 0 20 20" fill="none" xmlns="http://www.w3.org/2000/svg">
<path d="M4 2L4 18C4 18.2652 4.10536 18.5196 4.29289 18.7071C4.48043 18.8946 4.73478 19 5 19L15 19C15.2652 19 15.5196 18.8946 15.7071 18.7071C15.8946 18.5196 16 18.2652 16 18L16 2C16 1.73478 15.8946 1.48043 15.7071 1.29289C15.5196 1.10536 15.2652 1 15 1L5 1C4.73478 1 4.48043 1.10536 4.29289 1.29289C4.10536 1.48043 4 1.73478 4 2V2ZM6 8L14 8L14 12L6 12L6 8ZM6 17L6 14L14 14L14 17L6 17ZM14 3L14 6L6 6L6 3L14 3Z" fill="black"/>
</svg>
