<svg width="20" height="20" viewBox="0 0 20 20" fill="none" xmlns="http://www.w3.org/2000/svg">
<path d="M13.3082 18C13.1728 18.0007 13.0385 17.9757 12.9132 17.9264C12.7879 17.8771 12.6739 17.8044 12.5777 17.7126L5.30431 10.7057C5.20788 10.6135 5.13135 10.5039 5.07912 10.3832C5.02689 10.2624 5 10.1329 5 10.002C5 9.87119 5.02689 9.74165 5.07912 9.62088C5.13135 9.5001 5.20788 9.39049 5.30431 9.29836L12.5777 2.29147C12.6736 2.19906 12.7875 2.12576 12.9128 2.07575C13.0382 2.02574 13.1725 2 13.3082 2C13.4438 2 13.5781 2.02574 13.7035 2.07575C13.8288 2.12576 13.9427 2.19906 14.0386 2.29147C14.1345 2.38387 14.2106 2.49357 14.2625 2.61431C14.3144 2.73504 14.3411 2.86445 14.3411 2.99513C14.3411 3.12581 14.3144 3.25521 14.2625 3.37595C14.2106 3.49668 14.1345 3.60638 14.0386 3.69879L7.4853 10.002L14.0386 16.3152C14.2302 16.5008 14.3377 16.752 14.3377 17.0139C14.3377 17.2757 14.2302 17.5269 14.0386 17.7126C13.9425 17.8044 13.8284 17.8771 13.7031 17.9264C13.5778 17.9757 13.4435 18.0007 13.3082 18Z" fill="black"/>
</svg>
