<svg width="21" height="20" viewBox="0 0 21 20" fill="none" xmlns="http://www.w3.org/2000/svg">
<path fill-rule="evenodd" clip-rule="evenodd" d="M3.5 7.00002H12.5C12.7652 7.00002 13.0196 6.89466 13.2071 6.70712C13.3946 6.51959 13.5 6.26523 13.5 6.00001C13.5 5.73479 13.3946 5.48043 13.2071 5.2929C13.0196 5.10536 12.7652 5 12.5 5H3.5C3.23478 5 2.98043 5.10536 2.79289 5.2929C2.60536 5.48043 2.5 5.73479 2.5 6.00001C2.5 6.26523 2.60536 6.51959 2.79289 6.70712C2.98043 6.89466 3.23478 7.00002 3.5 7.00002ZM17.5 9.00024H3.5C3.23478 9.00024 2.98043 9.1056 2.79289 9.29314C2.60536 9.48068 2.5 9.73503 2.5 10.0003C2.5 10.2655 2.60536 10.5198 2.79289 10.7074C2.98043 10.8949 3.23478 11.0003 3.5 11.0003H17.5C17.7652 11.0003 18.0196 10.8949 18.2071 10.7074C18.3946 10.5198 18.5 10.2655 18.5 10.0003C18.5 9.73503 18.3946 9.48068 18.2071 9.29314C18.0196 9.1056 17.7652 9.00024 17.5 9.00024ZM3.5 13H9.5C9.76522 13 10.0196 13.1054 10.2071 13.2929C10.3946 13.4804 10.5 13.7348 10.5 14C10.5 14.2652 10.3946 14.5196 10.2071 14.7071C10.0196 14.8947 9.76522 15 9.5 15H3.5C3.23478 15 2.98043 14.8947 2.79289 14.7071C2.60536 14.5196 2.5 14.2652 2.5 14C2.5 13.7348 2.60536 13.4804 2.79289 13.2929C2.98043 13.1054 3.23478 13 3.5 13Z" fill="black"/>
</svg>
