<svg width="106" height="12" viewBox="0 0 106 12" fill="none" xmlns="http://www.w3.org/2000/svg">
<path d="M12.6473 0H0V1.79999H12.6473V0Z" fill="#F12535"/>
<path d="M106 12H103.317L98.3342 7.27198V12H96.4371V0H98.3342V4.72649L103.316 0H105.998L99.6756 5.99923L106 12Z" fill="white"/>
<path d="M12.6473 5.09998H0V6.89997H12.6473V5.09998Z" fill="white"/>
<path d="M12.6473 10.2H0V11.9999H12.6473V10.2Z" fill="white"/>
<path d="M72.7234 0C71.4727 0 70.2501 0.351892 69.2102 1.01118C68.1702 1.67047 67.3597 2.60753 66.8811 3.70388C66.4025 4.80024 66.2773 6.00664 66.5213 7.17052C66.7653 8.3344 67.3675 9.4035 68.2519 10.2426C69.1363 11.0817 70.263 11.6532 71.4897 11.8847C72.7164 12.1162 73.9878 11.9974 75.1433 11.5432C76.2988 11.0891 77.2864 10.3201 77.9813 9.33339C78.6761 8.3467 79.047 7.18667 79.047 5.99998C79.047 4.40869 78.3808 2.88256 77.1949 1.75735C76.009 0.632135 74.4005 0 72.7234 0ZM72.7234 10.2C71.8479 10.2 70.9921 9.95364 70.2641 9.49214C69.5362 9.03064 68.9688 8.37469 68.6338 7.60724C68.2988 6.83979 68.2111 5.99532 68.3819 5.18061C68.5527 4.36589 68.9743 3.61753 69.5934 3.03015C70.2124 2.44277 71.0011 2.04275 71.8598 1.88069C72.7185 1.71863 73.6085 1.80181 74.4174 2.1197C75.2262 2.43758 75.9175 2.9759 76.4039 3.66658C76.8903 4.35727 77.1499 5.1693 77.1499 5.99998C77.1499 7.11389 76.6836 8.18217 75.8534 8.96982C75.0233 9.75747 73.8974 10.2 72.7234 10.2Z" fill="white"/>
<path d="M87.742 0C86.4913 0 85.2687 0.351892 84.2288 1.01118C83.1888 1.67047 82.3783 2.60753 81.8997 3.70388C81.4211 4.80024 81.2958 6.00664 81.5398 7.17052C81.7838 8.3344 82.3861 9.4035 83.2705 10.2426C84.1549 11.0817 85.2816 11.6532 86.5083 11.8847C87.735 12.1162 89.0064 11.9974 90.1619 11.5432C91.3174 11.0891 92.305 10.3201 92.9999 9.33339C93.6947 8.3467 94.0656 7.18667 94.0656 5.99998C94.0656 4.40869 93.3994 2.88256 92.2135 1.75735C91.0276 0.632135 89.4191 0 87.742 0ZM87.742 10.2C86.8665 10.2 86.0107 9.95364 85.2827 9.49214C84.5548 9.03064 83.9874 8.37469 83.6524 7.60724C83.3174 6.83979 83.2297 5.99532 83.4005 5.18061C83.5713 4.36589 83.9929 3.61753 84.6119 3.03015C85.231 2.44277 86.0197 2.04275 86.8784 1.88069C87.7371 1.71863 88.6271 1.80181 89.436 2.1197C90.2448 2.43758 90.9361 2.9759 91.4225 3.66658C91.9089 4.35727 92.1685 5.1693 92.1685 5.99998C92.1685 7.11389 91.7022 8.18217 90.872 8.96982C90.0419 9.75747 88.916 10.2 87.742 10.2Z" fill="white"/>
<path d="M52.1717 0H47.5871H45.69H41.8958V1.8H46.0852V12H47.9823V1.8H52.1717V0Z" fill="white"/>
<path d="M62.4881 5.73073C62.9506 5.23269 63.2518 4.61865 63.3557 3.96223C63.4596 3.30581 63.3616 2.63488 63.0737 2.02994C62.7857 1.425 62.32 0.911716 61.7323 0.551659C61.1445 0.191601 60.4598 6.10002e-05 59.7603 0H54.5432V12H60.3926C61.1648 11.9999 61.9169 11.7666 62.54 11.3338C63.1631 10.9011 63.6248 10.2913 63.8582 9.59292C64.0917 8.89453 64.0847 8.14376 63.8384 7.44937C63.5921 6.75498 63.1191 6.15303 62.4881 5.73073ZM56.4403 2.04074C56.4793 1.95874 56.5212 1.87849 56.566 1.8H59.7603C60.2215 1.8 60.6638 1.97383 60.9899 2.28326C61.316 2.5927 61.4993 3.01238 61.4993 3.44999C61.4993 3.8876 61.316 4.30728 60.9899 4.61672C60.6638 4.92615 60.2215 5.09999 59.7603 5.09999H56.4403V2.04074ZM60.3926 10.2H56.4403V6.89998H59.7603C59.9723 6.90006 60.1839 6.8825 60.3926 6.84749V6.89998C60.8538 6.89998 61.2961 7.07382 61.6223 7.38325C61.9484 7.69268 62.1316 8.11237 62.1316 8.54998C62.1316 8.98758 61.9484 9.40727 61.6223 9.7167C61.2961 10.0261 60.8538 10.2 60.3926 10.2Z" fill="white"/>
<path d="M39.5246 9.00006C39.5246 9.79571 39.1916 10.5588 38.5986 11.1214C38.0056 11.684 37.2014 12.0001 36.3628 12.0001H30.0392V10.2001H36.3628C36.6544 10.2002 36.9371 10.1048 37.163 9.9299C37.389 9.75503 37.5443 9.51145 37.6027 9.24041C37.6611 8.96936 37.619 8.68748 37.4835 8.44251C37.348 8.19753 37.1275 8.00449 36.8592 7.89607H36.8553L34.2586 6.76356L31.9363 5.75182C31.2701 5.47638 30.7242 4.99162 30.3905 4.3791C30.0568 3.76657 29.9557 3.06369 30.1042 2.38873C30.2526 1.71376 30.6416 1.10791 31.2056 0.673143C31.7697 0.238373 32.4743 0.00121577 33.201 0.00158735H39.5246V1.80158H33.201C32.9135 1.80137 32.6346 1.89408 32.4101 2.06443C32.1856 2.23478 32.029 2.47261 31.966 2.73873C31.9031 3.00485 31.9375 3.2834 32.0637 3.52845C32.19 3.77349 32.4004 3.97043 32.6603 4.08682L35.3052 5.23956L37.6639 6.26707L37.7335 6.29782C38.2698 6.54262 38.7225 6.92608 39.0393 7.40412C39.3562 7.88215 39.5244 8.43535 39.5246 9.00006Z" fill="white"/>
<path d="M25.7689 12H27.666L22.2909 0H20.3938L15.0187 12H16.9158L18.5283 8.39998H24.1548L25.7689 12ZM19.3354 6.59998L21.3415 2.11949L23.3493 6.59998H19.3354Z" fill="white"/>
</svg>
