<?xml version="1.0" encoding="utf-8"?>
<!-- Generator: Adobe Illustrator 26.0.2, SVG Export Plug-In . SVG Version: 6.00 Build 0)  -->
<svg version="1.1" id="Layer_1" xmlns="http://www.w3.org/2000/svg" xmlns:xlink="http://www.w3.org/1999/xlink" x="0px" y="0px"
	 viewBox="0 0 26.5 33.1" style="enable-background:new 0 0 26.5 33.1;" xml:space="preserve">
<style type="text/css">
	.st0{fill:#FFFFFF;}
	.st1{fill:#F12535;}
</style>
<path class="st0" d="M21.1,14.5c0.9-0.8,1.6-1.7,2.1-2.8c0.5-1.1,0.8-2.3,0.7-3.5c0-4.5-3.7-8.2-8.2-8.2H0.6C0.5,0,0.3,0.1,0.2,0.2
	C0.1,0.3,0,0.5,0,0.6v31.9c0,0.2,0.1,0.3,0.2,0.4c0.1,0.1,0.3,0.2,0.4,0.2h15.8c0.1,0,0.2,0,0.3,0c5.4,0,9.7-4.4,9.7-9.8
	C26.5,19.5,24.3,16.1,21.1,14.5z M21.9,28.5c-0.7,0.7-1.5,1.2-2.3,1.6c-0.9,0.4-1.8,0.6-2.8,0.5c-0.1,0-0.1,0-0.2,0h0h-14V16.1h14.2
	h0.1c1.4,0,2.8,0.4,4,1.2c1.2,0.8,2.1,1.9,2.6,3.3c0.5,1.3,0.7,2.8,0.4,4.2C23.6,26.2,22.9,27.4,21.9,28.5L21.9,28.5z"/>
<path class="st0" d="M7.8,17.4H5.7c-0.3,0-0.5,0.2-0.5,0.5v10.9c0,0.3,0.2,0.5,0.5,0.5h2.1c0.3,0,0.5-0.2,0.5-0.5V17.9
	C8.4,17.6,8.1,17.4,7.8,17.4z"/>
<path class="st0" d="M12.3,17.4h-2.1c-0.3,0-0.5,0.2-0.5,0.5v10.9c0,0.3,0.2,0.5,0.5,0.5h2.1c0.3,0,0.5-0.2,0.5-0.5V17.9
	C12.8,17.6,12.6,17.4,12.3,17.4z"/>
<path class="st1" d="M16.7,17.2l-2.1,0.4c-0.3,0-0.5,0.3-0.4,0.6l1.8,10.7c0,0.3,0.3,0.5,0.6,0.4l2.1-0.4c0.3,0,0.5-0.3,0.4-0.6
	l-1.8-10.7C17.2,17.3,17,17.1,16.7,17.2z"/>
</svg>
