<svg width="150" height="18" viewBox="0 0 150 18" fill="none" xmlns="http://www.w3.org/2000/svg">
<path d="M17.8971 0H0V2.69999H17.8971V0Z" fill="#F12535"/>
<path d="M150 18H146.204L139.152 10.908V18H136.468V0H139.152V7.08973L146.201 0H149.998L141.05 8.99885L150 18Z" fill="#002855"/>
<path d="M17.8971 7.64993H0V10.3499H17.8971V7.64993Z" fill="#002855"/>
<path d="M17.8971 15.3H0V17.9999H17.8971V15.3Z" fill="#002855"/>
<path d="M102.91 0C101.141 0 99.4105 0.527838 97.9389 1.51677C96.4674 2.5057 95.3204 3.91129 94.6431 5.55583C93.9658 7.20036 93.7886 9.00995 94.1339 10.7558C94.4792 12.5016 95.3314 14.1053 96.5829 15.3639C97.8344 16.6226 99.4289 17.4798 101.165 17.827C102.901 18.1743 104.7 17.9961 106.335 17.3149C107.97 16.6337 109.368 15.4801 110.351 14.0001C111.334 12.52 111.859 10.78 111.859 8.99997C111.859 6.61303 110.916 4.32385 109.238 2.63602C107.56 0.948202 105.284 0 102.91 0ZM102.91 15.3C101.672 15.3 100.46 14.9305 99.4304 14.2382C98.4003 13.546 97.5974 12.562 97.1233 11.4109C96.6492 10.2597 96.5251 8.99299 96.7668 7.77091C97.0085 6.54883 97.6051 5.42629 98.4812 4.54522C99.3572 3.66415 100.473 3.06412 101.688 2.82103C102.904 2.57795 104.163 2.70271 105.308 3.17954C106.452 3.65637 107.431 4.46385 108.119 5.49988C108.807 6.5359 109.174 7.75396 109.174 8.99997C109.174 10.6708 108.515 12.2732 107.34 13.4547C106.165 14.6362 104.572 15.3 102.91 15.3Z" fill="#002855"/>
<path d="M124.163 0C122.393 0 120.663 0.527838 119.192 1.51677C117.72 2.5057 116.573 3.91129 115.896 5.55583C115.219 7.20036 115.041 9.00995 115.387 10.7558C115.732 12.5016 116.584 14.1053 117.836 15.3639C119.087 16.6226 120.682 17.4798 122.417 17.827C124.153 18.1743 125.953 17.9961 127.588 17.3149C129.223 16.6337 130.62 15.4801 131.604 14.0001C132.587 12.52 133.112 10.78 133.112 8.99997C133.112 6.61303 132.169 4.32385 130.491 2.63602C128.813 0.948202 126.536 0 124.163 0ZM124.163 15.3C122.924 15.3 121.713 14.9305 120.683 14.2382C119.653 13.546 118.85 12.562 118.376 11.4109C117.902 10.2597 117.778 8.99299 118.02 7.77091C118.261 6.54883 118.858 5.42629 119.734 4.54522C120.61 3.66415 121.726 3.06412 122.941 2.82103C124.156 2.57795 125.416 2.70271 126.56 3.17954C127.705 3.65637 128.683 4.46385 129.372 5.49988C130.06 6.5359 130.427 7.75396 130.427 8.99997C130.427 10.6708 129.767 12.2732 128.593 13.4547C127.418 14.6362 125.825 15.3 124.163 15.3Z" fill="#002855"/>
<path d="M73.8279 0H67.3402H64.6557H59.2865V2.69999H65.215V18H67.8995V2.69999H73.8279V0Z" fill="#002855"/>
<path d="M88.4266 8.59609C89.081 7.84903 89.5073 6.92797 89.6543 5.94334C89.8013 4.95871 89.6627 3.95232 89.2552 3.04491C88.8477 2.1375 88.1887 1.36757 87.357 0.827488C86.5253 0.287402 85.5564 9.15003e-05 84.5664 0H77.1838V18H85.4613C86.554 17.9999 87.6183 17.6499 88.5 17.0007C89.3818 16.3516 90.0351 15.437 90.3654 14.3894C90.6958 13.3418 90.686 12.2156 90.3374 11.1741C89.9888 10.1325 89.3195 9.22955 88.4266 8.59609ZM79.8684 3.06111C79.9236 2.93811 79.9829 2.81774 80.0463 2.69999H84.5664C85.2191 2.69999 85.845 2.96074 86.3065 3.4249C86.768 3.88905 87.0273 4.51858 87.0273 5.17499C87.0273 5.83139 86.768 6.46092 86.3065 6.92508C85.845 7.38923 85.2191 7.64998 84.5664 7.64998H79.8684V3.06111ZM85.4613 15.3H79.8684V10.35H84.5664C84.8664 10.3501 85.1658 10.3237 85.4613 10.2712V10.35C86.1139 10.35 86.7398 10.6107 87.2013 11.0749C87.6628 11.539 87.9221 12.1686 87.9221 12.825C87.9221 13.4814 87.6628 14.1109 87.2013 14.5751C86.7398 15.0392 86.1139 15.3 85.4613 15.3Z" fill="#002855"/>
<path d="M55.9311 13.5C55.9311 14.6935 55.4597 15.8381 54.6207 16.682C53.7816 17.5259 52.6435 18 51.4568 18H42.5082V15.3H51.4568C51.8694 15.3003 52.2695 15.1571 52.5892 14.8948C52.9089 14.6325 53.1287 14.2671 53.2114 13.8605C53.294 13.454 53.2344 13.0312 53.0427 12.6637C52.851 12.2962 52.5389 12.0067 52.1593 11.844H52.1537L48.4792 10.1453L45.1928 8.62766C44.2501 8.21451 43.4776 7.48737 43.0054 6.56858C42.5332 5.6498 42.3901 4.59548 42.6002 3.58303C42.8103 2.57058 43.3607 1.66181 44.1589 1.00965C44.9571 0.357499 45.9542 0.00176263 46.9825 0.00231999H55.9311V2.70231H46.9825C46.5758 2.702 46.181 2.84105 45.8634 3.09658C45.5457 3.35211 45.324 3.70886 45.2349 4.10804C45.1458 4.50722 45.1946 4.92503 45.3732 5.29261C45.5518 5.66018 45.8496 5.95559 46.2174 6.13017L49.9602 7.85928L53.298 9.40055L53.3965 9.44666C54.1554 9.81387 54.7959 10.3891 55.2443 11.1061C55.6927 11.8232 55.9308 12.653 55.9311 13.5Z" fill="#002855"/>
<path d="M36.4655 18H39.15L31.5437 0H28.8592L21.2529 18H23.9375L26.2193 12.6H34.1813L36.4655 18ZM27.3614 9.89997L30.2003 3.17924L33.0415 9.89997H27.3614Z" fill="#002855"/>
</svg>
