<svg width="53" height="53" viewBox="0 0 53 53" fill="none" xmlns="http://www.w3.org/2000/svg">
<path d="M35.9735 25.5767C36.8878 24.7995 37.6213 23.8293 38.1222 22.7346C38.6231 21.64 38.8791 20.4477 38.8721 19.2423C38.8506 14.696 35.1432 11.0415 30.6329 11.0415H15.5296C15.3643 11.0415 15.2057 11.1077 15.0888 11.2255C14.9719 11.3434 14.9062 11.5032 14.9062 11.6698V43.5315C14.9062 43.6982 14.9719 43.858 15.0888 43.9759C15.2057 44.0938 15.3642 44.1601 15.5296 44.1601H31.3545C31.4651 44.164 31.5763 44.1665 31.6876 44.1665C37.0551 44.1665 41.406 39.7806 41.406 34.3703C41.406 30.5107 39.1915 27.1731 35.9735 25.5767ZM36.781 39.5033C36.1139 40.1798 35.3203 40.7162 34.4462 41.0814C33.5721 41.4467 32.6348 41.6336 31.6885 41.6313C31.6178 41.6313 31.5389 41.6313 31.4401 41.6262H31.3976H17.4227V27.1092H31.5909H31.7138C33.1361 27.1145 34.525 27.544 35.7054 28.3437C36.8859 29.1434 37.805 30.2774 38.3471 31.6028C38.8891 32.9282 39.0298 34.3857 38.7513 35.7916C38.4728 37.1974 37.7877 38.4887 36.7822 39.5027L36.781 39.5033Z" fill="white"/>
<path d="M22.7309 28.4033H20.5912C20.2989 28.4033 20.062 28.6421 20.062 28.9368V39.8053C20.062 40.0999 20.2989 40.3387 20.5912 40.3387H22.7309C23.0231 40.3387 23.2601 40.0999 23.2601 39.8053V28.9368C23.2601 28.6421 23.0231 28.4033 22.7309 28.4033Z" fill="white"/>
<path d="M27.2178 28.4033H25.0782C24.7859 28.4033 24.549 28.6421 24.549 28.9368V39.8053C24.549 40.0999 24.7859 40.3387 25.0782 40.3387H27.2178C27.5101 40.3387 27.747 40.0999 27.747 39.8053V28.9368C27.747 28.6421 27.5101 28.4033 27.2178 28.4033Z" fill="white"/>
<path d="M31.5855 28.1917L29.4758 28.5517C29.1876 28.6009 28.9936 28.8762 29.0424 29.1667L30.8424 39.8827C30.8912 40.1732 31.1644 40.3688 31.4526 40.3196L33.5622 39.9596C33.8504 39.9104 34.0444 39.635 33.9956 39.3446L32.1956 28.6286C32.1468 28.3381 31.8736 28.1425 31.5855 28.1917Z" fill="#F12535"/>
</svg>
