<svg width="22" height="23" viewBox="0 0 22 23" fill="none" xmlns="http://www.w3.org/2000/svg">
<path d="M14.9324 10.9501C15.3119 10.6275 15.6164 10.2248 15.8243 9.77038C16.0322 9.316 16.1385 8.82109 16.1356 8.32072C16.1266 6.43358 14.5878 4.91663 12.7156 4.91663H6.44624C6.37762 4.91663 6.31181 4.9441 6.26328 4.99301C6.21476 5.04192 6.1875 5.10826 6.1875 5.17743V18.4031C6.1875 18.4722 6.21475 18.5386 6.26327 18.5875C6.31179 18.6364 6.3776 18.664 6.44624 18.664H13.0151C13.061 18.6656 13.1072 18.6666 13.1533 18.6666C15.3813 18.6666 17.1874 16.8461 17.1874 14.6003C17.1874 12.9982 16.2682 11.6128 14.9324 10.9501ZM15.2676 16.731C14.9907 17.0118 14.6612 17.2344 14.2984 17.386C13.9356 17.5377 13.5465 17.6152 13.1537 17.6143C13.1244 17.6143 13.0916 17.6143 13.0506 17.6122H13.033H7.23205V11.5863H13.1132H13.1642C13.7546 11.5884 14.3311 11.7667 14.8211 12.0987C15.3111 12.4306 15.6927 12.9013 15.9177 13.4515C16.1426 14.0017 16.201 14.6067 16.0854 15.1902C15.9698 15.7738 15.6854 16.3098 15.2681 16.7307L15.2676 16.731Z" fill="#002855"/>
<path d="M9.43547 12.1234H8.54731C8.42599 12.1234 8.32764 12.2225 8.32764 12.3448V16.8563C8.32764 16.9786 8.42599 17.0777 8.54731 17.0777H9.43547C9.55679 17.0777 9.65514 16.9786 9.65514 16.8563V12.3448C9.65514 12.2225 9.55679 12.1234 9.43547 12.1234Z" fill="#002855"/>
<path d="M11.2979 12.1234H10.4098C10.2885 12.1234 10.1901 12.2225 10.1901 12.3448V16.8563C10.1901 16.9786 10.2885 17.0777 10.4098 17.0777H11.2979C11.4193 17.0777 11.5176 16.9786 11.5176 16.8563V12.3448C11.5176 12.2225 11.4193 12.1234 11.2979 12.1234Z" fill="#002855"/>
<path d="M13.111 12.0356L12.2353 12.1851C12.1156 12.2055 12.0351 12.3198 12.0553 12.4404L12.8025 16.8885C12.8228 17.0091 12.9362 17.0903 13.0558 17.0699L13.9315 16.9204C14.0511 16.9 14.1317 16.7857 14.1114 16.6651L13.3642 12.217C13.344 12.0964 13.2306 12.0152 13.111 12.0356Z" fill="#F12535"/>
</svg>
