<svg width="36" height="73" viewBox="0 0 36 73" fill="none" xmlns="http://www.w3.org/2000/svg">
<path fill-rule="evenodd" clip-rule="evenodd" d="M24 0H0V57.0058V62V64.9971V73L12.0087 68.9985L24 72.9941V65.0029V62V57V0Z" fill="white"/>
<path d="M12 47C9.61305 47 7.32386 47.9482 5.63604 49.636C3.94821 51.3239 3 53.6131 3 56C3 58.3869 3.94821 60.6761 5.63604 62.364C7.32386 64.0518 9.61305 65 12 65C12.2652 65 12.5196 64.8946 12.7071 64.7071C12.8946 64.5196 13 64.2652 13 64C13 63.7348 12.8946 63.4804 12.7071 63.2929C12.5196 63.1054 12.2652 63 12 63C10.6155 63 9.26215 62.5895 8.111 61.8203C6.95986 61.0511 6.06265 59.9579 5.53284 58.6788C5.00303 57.3997 4.8644 55.9922 5.1345 54.6344C5.4046 53.2765 6.07128 52.0292 7.05025 51.0503C8.02922 50.0713 9.27649 49.4046 10.6344 49.1345C11.9922 48.8644 13.3997 49.003 14.6788 49.5328C15.9579 50.0627 17.0511 50.9599 17.8203 52.111C18.5894 53.2622 19 54.6155 19 56V57.25C19 57.6478 18.8419 58.0294 18.5606 58.3107C18.2793 58.592 17.8978 58.75 17.5 58.75C17.1022 58.75 16.7206 58.592 16.4393 58.3107C16.158 58.0294 16 57.6478 16 57.25V53C16 52.7348 15.8946 52.4804 15.7071 52.2929C15.5196 52.1054 15.2652 52 15 52C14.8422 52.0034 14.6874 52.0442 14.5484 52.1189C14.4093 52.1937 14.2899 52.3003 14.2 52.43C13.4288 51.8278 12.4785 51.5004 11.5 51.5C10.7623 51.4978 10.0354 51.6771 9.38326 52.0219C8.73113 52.3667 8.17377 52.8666 7.76026 53.4775C7.34674 54.0884 7.08975 54.7916 7.01191 55.5252C6.93407 56.2587 7.03777 57.0002 7.31388 57.6843C7.58998 58.3683 8.03003 58.974 8.59528 59.448C9.16052 59.9221 9.83363 60.2498 10.5554 60.4025C11.2771 60.5552 12.0253 60.5281 12.734 60.3237C13.4428 60.1192 14.0905 59.7436 14.62 59.23C15.0446 59.8449 15.6549 60.3077 16.3615 60.5508C17.0681 60.7939 17.8339 60.8044 18.5469 60.5809C19.26 60.3574 19.8828 59.9115 20.3241 59.3086C20.7655 58.7056 21.0024 57.9772 21 57.23V56C21 53.6131 20.0518 51.3239 18.3639 49.636C16.6761 47.9482 14.3869 47 12 47V47ZM11.5 58.5C11.0055 58.5 10.5222 58.3534 10.1111 58.0787C9.69994 57.804 9.37951 57.4135 9.1903 56.9567C9.00108 56.4999 8.95157 55.9972 9.04803 55.5123C9.14449 55.0273 9.3826 54.5819 9.73223 54.2322C10.0819 53.8826 10.5273 53.6445 11.0123 53.548C11.4972 53.4516 11.9999 53.5011 12.4567 53.6903C12.9135 53.8795 13.304 54.2 13.5787 54.6111C13.8534 55.0222 14 55.5055 14 56C14 56.3283 13.9353 56.6534 13.8097 56.9567C13.6841 57.26 13.4999 57.5356 13.2678 57.7678C13.0356 57.9999 12.76 58.1841 12.4567 58.3097C12.1534 58.4353 11.8283 58.5 11.5 58.5Z" fill="#002855"/>
<path fill-rule="evenodd" clip-rule="evenodd" d="M36 0H12V24.0058V29V31.9971V40L24.0087 35.9985L36 39.9942V32.0029V29V24V0Z" fill="#002855"/>
<path d="M30.8571 15.4417H29.3486L29.7143 13.3525C29.742 13.2015 29.739 13.0465 29.7053 12.8967C29.6717 12.7469 29.6082 12.6054 29.5185 12.4807C29.4289 12.356 29.3151 12.2507 29.1837 12.171C29.0524 12.0912 28.9064 12.0388 28.7543 12.0167C28.604 11.9907 28.45 11.9951 28.3014 12.0295C28.1528 12.0638 28.0125 12.1276 27.889 12.217C27.7654 12.3064 27.6611 12.4195 27.582 12.5498C27.5029 12.6802 27.4507 12.825 27.4286 12.9757L27.0286 15.4417H22.4571L22.8571 13.3525C22.8849 13.2015 22.8818 13.0465 22.8482 12.8967C22.8145 12.7469 22.751 12.6054 22.6614 12.4807C22.5718 12.356 22.4579 12.2507 22.3266 12.171C22.1953 12.0912 22.0492 12.0388 21.8971 12.0167C21.7468 11.9907 21.5928 11.9951 21.4442 12.0295C21.2956 12.0638 21.1554 12.1276 21.0319 12.217C20.9083 12.3064 20.8039 12.4195 20.7248 12.5498C20.6458 12.6802 20.5936 12.825 20.5714 12.9757L20.1714 15.4417H18.2857C17.9826 15.4417 17.6919 15.562 17.4776 15.7761C17.2633 15.9902 17.1429 16.2806 17.1429 16.5834C17.1429 16.8861 17.2633 17.1765 17.4776 17.3906C17.6919 17.6047 17.9826 17.725 18.2857 17.725H19.7943L19.0286 22.2916H17.1429C16.8398 22.2916 16.5491 22.4119 16.3347 22.626C16.1204 22.8401 16 23.1305 16 23.4333C16 23.7361 16.1204 24.0264 16.3347 24.2405C16.5491 24.4546 16.8398 24.5749 17.1429 24.5749H18.6514L18.2857 26.6756C18.2597 26.8257 18.264 26.9795 18.2984 27.128C18.3329 27.2765 18.3967 27.4165 18.4862 27.5399C18.5756 27.6634 18.6889 27.7676 18.8194 27.8466C18.9498 27.9256 19.0948 27.9777 19.2457 27.9999H19.4286C19.7008 28.0038 19.9656 27.9105 20.1751 27.7368C20.3846 27.5631 20.5252 27.3204 20.5714 27.0523L20.9714 24.5749H25.5429L25.1429 26.6756C25.1168 26.8257 25.1212 26.9795 25.1556 27.128C25.19 27.2765 25.2538 27.4165 25.3433 27.5399C25.4328 27.6634 25.5461 27.7676 25.6765 27.8466C25.807 27.9256 25.9519 27.9777 26.1029 27.9999H26.2857C26.558 28.0038 26.8227 27.9105 27.0322 27.7368C27.2418 27.5631 27.3823 27.3204 27.4286 27.0523L27.8286 24.5749H29.7143C30.0174 24.5749 30.3081 24.4546 30.5224 24.2405C30.7367 24.0264 30.8571 23.7361 30.8571 23.4333C30.8571 23.1305 30.7367 22.8401 30.5224 22.626C30.3081 22.4119 30.0174 22.2916 29.7143 22.2916H28.2057L28.9714 17.725H30.8571C31.1602 17.725 31.4509 17.6047 31.6653 17.3906C31.8796 17.1765 32 16.8861 32 16.5834C32 16.2806 31.8796 15.9902 31.6653 15.7761C31.4509 15.562 31.1602 15.4417 30.8571 15.4417ZM25.8857 22.2916H21.3143L22.08 17.725H26.6514L25.8857 22.2916Z" fill="white"/>
</svg>
